<svg width="160" height="160" fill="none" xmlns="http://www.w3.org/2000/svg"><path d="M23.534 46.304h-5.64v49.312h5.64v4.483H12.4V41.821h11.134v4.483zM39.6 46.304h-5.64v49.312h5.64v4.483H28.466V41.821H39.6v4.483zM136.666 46.304h5.641v49.312h-5.641v4.483H147.8V41.821h-11.134v4.483zM120.6 46.304h5.641v49.312H120.6v4.483h11.134V41.821H120.6v4.483z" fill="#95BDFE"/><path d="M98.536 62.986l.032.076c.245-.111.532-.24.858-.385a54.76 54.76 0 01-.89.31zM99.426 62.677c.87-.309 2.043-.739 3.328-1.215a23.943 23.943 0 002.415-1.057 27.01 27.01 0 00-3.337 1.21c-.875.386-1.716.755-2.406 1.062zM87.188 52.032c.386-.773 1.11-2.324 1.923-4.1 2.672-5.83 2.86-12.315.551-18.725l-.783-2.174c-.025-.198-.412-.274-.51-.1-5.508 5.667-8.435 12.55-8.442 19.877-.002 1.598-.008 3.1.007 3.89 1.3-.003 2.618.118 3.942.378 1.15.226 2.253.55 3.312.954z" fill="#F17000"/><path d="M98.536 62.986c.239-.08.539-.184.89-.309.69-.307 1.531-.676 2.406-1.062a26.994 26.994 0 013.337-1.21c4.857-2.443 8.702-6.48 11.195-11.794l.981-2.091c.123-.158-.097-.486-.29-.432-7.896.106-14.826 2.901-20.005 8.077-1.054 1.054-2.05 2.044-2.625 2.635a20.266 20.266 0 014.11 6.186zM123.868 79.236c-5.658-5.516-12.532-8.447-19.849-8.455-1.595-.001-3.094-.007-3.884.007a20.304 20.304 0 01-.377 3.949 20.292 20.292 0 01-.953 3.316c.773.387 2.321 1.111 4.095 1.926 5.821 2.676 12.297 2.865 18.697.552l2.171-.784c.198-.025.274-.413.1-.511zM69.865 48.829c-2.844-6.75-8.208-11.959-15.48-15.042-.157-.123-.485.097-.43.29l.12 2.308c.302 5.821 2.316 10.98 5.846 15.065.596.69 1.23 1.353 1.913 1.98.775.711 1.5 1.373 2.107 1.92.726.762 1.268 1.342 1.492 1.608l.162-.17a20.235 20.235 0 015.85-4.17c-.255-.66-.897-2.17-1.58-3.79zM61.391 63.184c-.727-.313-2.116-.874-3.595-1.475-6.778-2.76-14.248-2.644-21.566.325-.199.025-.275.413-.1.51l1.714 1.547c5.055 4.562 11.123 6.835 17.522 6.558 1.95-.084 3.656-.17 4.517-.236a20.28 20.28 0 01.369-3.43c.26-1.327.645-2.595 1.14-3.8zM72.34 89.5c-.312.728-.873 2.12-1.473 3.6-2.755 6.788-2.64 14.268.325 21.598.025.199.412.274.51.1l1.544-1.717c4.555-5.062 6.825-11.139 6.548-17.547-.084-1.953-.169-3.662-.235-4.524a20.225 20.225 0 01-3.426-.369 20.208 20.208 0 01-3.793-1.14zM87.783 89.452c.233.617.897 2.176 1.606 3.859 2.845 6.75 8.208 11.958 15.48 15.042.158.122.485-.098.431-.291l-.12-2.307c-.354-6.805-3.039-12.71-7.76-17.045-1.621-1.49-3.024-2.758-3.579-3.216a20.234 20.234 0 01-6.058 3.958zM65.725 85.068a20.27 20.27 0 01-3.995-5.767c-.863.307-2.011.728-3.266 1.194-6.005 2.23-10.718 6.682-13.61 12.85l-.981 2.091c-.123.158.097.486.29.432 6.328-.085 12.033-1.901 16.716-5.282a26.985 26.985 0 003.288-2.794c.806-.806 1.576-1.572 2.151-2.153-.201-.187-.4-.376-.593-.57z" fill="#F17000"/><path d="M99.426 62.677c-.326.145-.614.274-.859.385a20.068 20.068 0 011.56 7.32c.897.04 2.534.073 4.393.1 6.404.09 12.404-2.358 17.325-7.064l1.669-1.596c.171-.103.084-.488-.115-.508-6.194-2.305-12.435-2.602-18.23-.91-.781.393-1.584.749-2.416 1.057-1.284.477-2.457.907-3.327 1.216zM97.17 88.184c4.464 4.6 10.435 7.117 17.238 7.274l2.306.053c.194.049.405-.285.277-.44-3.288-7.19-8.642-12.408-15.462-15.06-1.157-.45-2.256-.88-3.037-1.177a20.047 20.047 0 01-4.255 6.282c.627.68 1.709 1.807 2.933 3.068zM80.226 95.526c-.091 6.413 2.354 12.422 7.053 17.35l1.594 1.671c.102.171.487.084.506-.115 2.752-7.412 2.65-14.893-.3-21.598-.577-1.313-1.12-2.554-1.465-3.315a19.984 19.984 0 01-7.285 1.497c-.04.87-.076 2.571-.103 4.51zM96.577 53.952c5.016-5.334 7.605-12.352 7.483-20.259.048-.194-.286-.405-.44-.277l-2.059 1.042c-6.073 3.075-10.38 7.92-12.432 13.997a219.999 219.999 0 00-1.269 3.843 20.011 20.011 0 016.292 4.224c.583-.605 1.477-1.561 2.425-2.57zM79.387 46.818c-.22-7.323-3.344-14.12-9.014-19.623-.103-.172-.488-.085-.507.114l-.72 2.196c-2.123 6.474-1.746 12.95 1.093 18.7.864 1.75 1.631 3.279 2.04 4.041a19.994 19.994 0 017.214-1.536c-.009-.792-.058-2.293-.106-3.892zM55.998 71.478c-7.313.22-14.1 3.35-19.595 9.027-.172.103-.085.488.114.508l2.192.72c6.465 2.126 12.933 1.75 18.674-1.093 1.748-.866 3.274-1.634 4.035-2.043a20.072 20.072 0 01-1.534-7.225c-.79.009-2.29.058-3.886.106zM64.167 87.791a27.001 27.001 0 01-3.288 2.795c-3.476 4.885-5.251 10.835-5.15 17.403-.047.194.286.405.44.277l2.06-1.042c6.072-3.075 10.38-7.921 12.431-13.997a215.277 215.277 0 001.286-3.897 20 20 0 01-5.628-3.691c-.576.58-1.345 1.347-2.151 2.153zM63.941 55.35c-.607-.547-1.333-1.209-2.107-1.92a23.883 23.883 0 01-1.913-1.98c-4.164-3.37-9.34-5.212-15.118-5.345l-2.307-.053c-.194-.049-.404.285-.277.44 3.288 7.19 8.642 12.407 15.462 15.06 1.602.622 3.095 1.208 3.783 1.454a20.035 20.035 0 013.969-6.048c-.224-.266-.766-.846-1.492-1.607z" fill="#F17000"/><path d="M94.237 85.117c.628.68 1.71 1.806 2.933 3.067 4.464 4.6 10.435 7.117 17.238 7.274l2.307.053c.07.018.141-.016.199-.072l-20.33-13.147a20.036 20.036 0 01-2.347 2.825zM89.112 47.931c2.672-5.83 2.86-12.314.55-18.724l-.782-2.174-5.003 24.045c1.15.226 2.253.55 3.311.954.387-.773 1.11-2.324 1.924-4.1zM94.153 56.522c.582-.605 1.476-1.56 2.425-2.57 5.016-5.334 7.605-12.352 7.482-20.259.035-.14-.128-.286-.279-.31L90.991 53.97a20.09 20.09 0 013.162 2.551zM98.536 62.986c.24-.08.54-.184.89-.309.69-.307 1.532-.676 2.406-1.062a27.053 27.053 0 013.337-1.21c4.857-2.443 8.703-6.48 11.195-11.794l.981-2.091c.053-.069.04-.169-.006-.256l-20.528 13.51a20.182 20.182 0 011.725 3.212zM100.127 70.382c.897.04 2.534.073 4.394.1 6.404.09 12.403-2.358 17.325-7.064l1.668-1.596c.061-.037.088-.11.09-.19l-23.906 5.051c.254 1.205.401 2.442.429 3.7zM99.79 74.555c-.012.06-.02.121-.032.182a20.29 20.29 0 01-.952 3.316c.772.387 2.321 1.111 4.094 1.926 5.821 2.676 12.297 2.865 18.698.552l2.17-.784c.064-.008.113-.055.147-.116l-24.126-5.076zM87.784 89.452c.233.617.896 2.177 1.605 3.859 2.845 6.75 8.209 11.958 15.48 15.042.089.069.23.028.328-.054l-14.531-20.35a20.065 20.065 0 01-2.882 1.503zM80.33 91.016c-.041.87-.076 2.571-.104 4.51-.09 6.413 2.354 12.421 7.053 17.35l1.594 1.671c.064.107.238.113.364.055l-5.215-23.99a19.91 19.91 0 01-3.692.404zM70.867 93.1c-2.755 6.788-2.64 14.268.325 21.598.01.082.083.141.171.172l4.746-24.234a20.19 20.19 0 01-3.77-1.136c-.311.728-.871 2.12-1.472 3.6zM64.167 87.792a27.002 27.002 0 01-3.288 2.794c-3.476 4.885-5.25 10.835-5.149 17.403-.022.089.038.18.122.242l12.982-20.608a20.022 20.022 0 01-2.516-1.984c-.575.581-1.345 1.347-2.15 2.153zM61.73 79.301c-.863.308-2.011.728-3.266 1.194-6.005 2.23-10.717 6.682-13.61 12.85l-.981 2.092c-.063.08-.035.206.032.302l19.7-13.201A20.388 20.388 0 0161.73 79.3zM59.884 71.372c-.79.009-2.29.058-3.886.106-7.313.22-14.1 3.35-19.595 9.027-.084.05-.105.167-.083.276l24.067-5.424a20.095 20.095 0 01-.503-3.985zM61.391 63.184c-.726-.313-2.116-.874-3.594-1.476-6.778-2.758-14.248-2.643-21.567.326-.075.01-.132.07-.165.149l24.216 4.67a20.274 20.274 0 011.11-3.67zM65.433 56.958c-.224-.266-.765-.846-1.491-1.607-.607-.548-1.333-1.21-2.108-1.921a23.884 23.884 0 01-1.913-1.98c-4.164-3.37-9.339-5.212-15.118-5.345l-2.307-.053c-.114-.03-.232.076-.286.198L63.33 59.576a20.206 20.206 0 012.104-2.618zM71.445 52.618c-.255-.661-.897-2.17-1.58-3.79-2.844-6.75-8.207-11.958-15.479-15.041-.069-.053-.168-.04-.255.006L68.308 54.46a20.185 20.185 0 013.137-1.842zM70.374 27.195c-.06-.1-.215-.11-.338-.064l5.713 24.026a20.026 20.026 0 013.744-.447c-.008-.792-.057-2.293-.105-3.892-.22-7.323-3.345-14.12-9.014-19.623z" fill="#C35D1A"/><path d="M89.777 110.121s-.3-.89-.676-2.236c-.378-1.346-.819-3.151-1.244-4.955-.22-.9-.42-1.802-.64-2.642-.23-.84-.447-1.618-.651-2.284a22.79 22.79 0 00-.532-1.596 7.416 7.416 0 00-.237-.595s.134.192.335.55c.193.36.453.886.735 1.53.277.644.578 1.41.858 2.239.293.828.575 1.725.805 2.63a45.116 45.116 0 011.007 5.032c.19 1.389.24 2.327.24 2.327zM91.482 105.665l-.62-1.636c-.366-.978-.862-2.27-1.386-3.548-.252-.643-.53-1.276-.781-1.874l-.713-1.627c-.211-.477-.38-.882-.512-1.158-.125-.28-.189-.447-.189-.447s.117.133.307.375c.186.245.468.588.752 1.033.149.219.306.459.454.723.15.262.322.534.466.83.146.296.318.593.453.913.14.317.29.637.421.964.53 1.307.922 2.666 1.12 3.705.107.517.149.959.191 1.263.034.307.037.484.037.484zM86.217 110.887s-.34-.876-.735-2.221a45.012 45.012 0 01-1.145-5.002 30.468 30.468 0 01-.344-2.729 30.35 30.35 0 01-.136-2.395 22.03 22.03 0 01.043-1.697c.037-.409.08-.639.08-.639s-.004.234.028.64c.025.406.075.984.17 1.673.086.692.207 1.491.341 2.351.145.856.332 1.761.5 2.673.353 1.82.69 3.647.898 5.029.208 1.382.3 2.317.3 2.317zM82.836 107.525s-.07-.163-.165-.457c-.087-.295-.23-.715-.343-1.231-.247-1.028-.446-2.428-.499-3.838-.015-.352-.01-.705-.01-1.052-.01-.347.026-.689.038-1.019.01-.33.054-.647.085-.949.026-.301.071-.585.117-.845.077-.523.193-.951.262-1.251.074-.3.126-.468.126-.468s.01.178.011.485c-.008.306.005.744.008 1.266l.017 1.777c.016.649.022 1.34.056 2.03.047 1.381.124 2.763.19 3.805l.107 1.747zM41.476 81.993s.89-.3 2.233-.677c1.344-.378 3.146-.82 4.948-1.245.899-.221 1.8-.421 2.638-.64a82.73 82.73 0 002.281-.654 22.492 22.492 0 001.594-.532 7.29 7.29 0 00.593-.238s-.191.135-.548.336c-.36.194-.885.454-1.528.737-.643.277-1.408.578-2.236.858-.827.293-1.722.577-2.627.807a44.89 44.89 0 01-5.024 1.008c-1.387.19-2.324.24-2.324.24zM45.925 83.7l1.635-.62c.976-.367 2.266-.864 3.542-1.388.643-.252 1.275-.53 1.872-.782l1.625-.714c.476-.212.88-.38 1.156-.513.28-.125.446-.189.446-.189s-.132.117-.374.307c-.245.186-.587.468-1.032.753a9.59 9.59 0 01-.721.454c-.262.152-.533.323-.83.467-.295.147-.592.32-.911.454-.317.141-.636.29-.962.422-1.306.53-2.662.924-3.7 1.12-.517.109-.958.15-1.262.193-.306.033-.483.037-.483.037zM40.712 78.428s.875-.34 2.217-.736a44.84 44.84 0 014.995-1.147c.92-.162 1.851-.271 2.726-.344a30.16 30.16 0 012.391-.137c.702-.007 1.287.015 1.695.044.408.037.638.08.638.08s-.234-.004-.639.028c-.405.025-.983.075-1.671.17-.69.087-1.489.208-2.348.342-.854.145-1.758.332-2.668.5-1.818.354-3.642.692-5.022.9-1.38.208-2.314.3-2.314.3zM44.069 75.042s.163-.07.456-.165c.294-.087.714-.23 1.23-.343 1.026-.248 2.424-.447 3.832-.5.352-.014.704-.01 1.05-.01.347-.01.688.026 1.017.038.33.01.647.054.948.085.301.026.584.071.845.117.522.077.95.194 1.248.263.3.074.468.126.468.126s-.178.01-.484.011c-.306-.008-.744.005-1.265.008l-1.774.017c-.648.016-1.338.022-2.027.057-1.38.046-2.759.124-3.8.19l-1.744.106zM59.608 105.921s.417-.841 1.1-2.06c.684-1.218 1.646-2.807 2.62-4.384.48-.793.975-1.572 1.413-2.321a82.31 82.31 0 001.152-2.077c.332-.612.584-1.135.75-1.505.174-.368.253-.588.253-.588s-.04.23-.15.625c-.119.392-.306.948-.561 1.603a30.255 30.255 0 01-.975 2.19c-.378.794-.811 1.628-1.288 2.43a45.024 45.024 0 01-2.841 4.272c-.846 1.116-1.474 1.815-1.474 1.815zM63.96 103.978l.717-1.596c.43-.951.992-2.216 1.524-3.49.277-.634.528-1.278.771-1.879l.645-1.655c.188-.487.355-.892.456-1.182.11-.286.182-.449.182-.449s-.01.176-.048.482c-.041.305-.084.747-.198 1.263a9.64 9.64 0 01-.189.832c-.078.293-.15.606-.257.918-.106.313-.193.645-.324.966-.124.324-.244.656-.382.98-.549 1.299-1.23 2.538-1.825 3.412-.29.442-.571.784-.757 1.029-.193.241-.316.369-.316.369zM56.55 103.942s.378-.86 1.047-2.091a45.07 45.07 0 012.723-4.348 30.436 30.436 0 011.684-2.174 30.253 30.253 0 011.594-1.79c.492-.501.92-.9 1.23-1.169.314-.263.507-.394.507-.394s-.168.162-.432.472c-.27.304-.642.748-1.062 1.303-.427.55-.906 1.201-1.418 1.905-.502.707-1.009 1.48-1.533 2.243-1.036 1.537-2.088 3.068-2.917 4.192a51.476 51.476 0 01-1.423 1.851zM56.533 99.17s.065-.165.205-.44c.148-.27.343-.668.627-1.113.552-.902 1.4-2.033 2.358-3.067.238-.26.49-.505.735-.752.239-.251.505-.467.746-.692.24-.227.496-.42.73-.612.232-.194.464-.363.68-.514.424-.316.808-.536 1.069-.7.263-.159.42-.241.42-.241s-.119.133-.335.351c-.222.21-.522.53-.889.9l-1.242 1.27c-.447.469-.93.962-1.394 1.474a130.434 130.434 0 00-2.552 2.826l-1.158 1.31zM47.81 95.674s.732-.59 1.862-1.41c1.13-.82 2.668-1.859 4.211-2.882.768-.52 1.544-1.02 2.254-1.516.707-.507 1.361-.98 1.915-1.403a22.533 22.533 0 001.31-1.052c.312-.261.476-.428.476-.428s-.133.192-.399.505c-.27.306-.673.732-1.178 1.22a30.2 30.2 0 01-1.802 1.58 30.405 30.405 0 01-2.186 1.668 44.956 44.956 0 01-4.365 2.687 30.838 30.838 0 01-2.097 1.03zM52.576 95.733l1.318-1.148c.79-.683 1.828-1.596 2.844-2.53.516-.46 1.013-.94 1.485-1.383.468-.45.904-.872 1.278-1.233.374-.363.695-.661.908-.882.22-.214.353-.331.353-.331s-.084.155-.245.418c-.165.259-.389.642-.707 1.063a9.654 9.654 0 01-.52.677c-.194.233-.389.487-.617.725-.227.24-.445.505-.699.742-.247.242-.495.493-.756.73-1.042.95-2.179 1.788-3.084 2.333-.447.28-.847.472-1.117.617-.277.138-.441.202-.441.202zM45.862 92.594s.703-.622 1.825-1.459a44.945 44.945 0 014.29-2.807c.807-.47 1.643-.896 2.439-1.268.787-.38 1.543-.703 2.196-.957.656-.25 1.212-.432 1.605-.546.396-.107.626-.146.626-.146s-.22.077-.59.248c-.371.163-.895.41-1.509.738-.618.32-1.324.71-2.084 1.135-.752.432-1.534.92-2.33 1.395-1.584.96-3.179 1.91-4.402 2.583-1.222.674-2.066 1.084-2.066 1.084zM47.841 88.254s.128-.122.37-.314c.247-.183.591-.462 1.035-.748.878-.587 2.121-1.26 3.424-1.797.325-.135.657-.253.981-.374.322-.128.655-.213.968-.316.313-.105.626-.173.919-.249.291-.08.572-.135.832-.182.517-.109.958-.148 1.263-.187.306-.034.482-.044.482-.044s-.163.072-.45.18c-.29.097-.696.261-1.184.445l-1.659.63c-.602.24-1.247.485-1.882.756a130.163 130.163 0 00-3.499 1.496l-1.6.704zM73.974 110.954s.1-.934.321-2.314c.22-1.38.574-3.204.942-5.021.177-.91.372-1.813.524-2.668.142-.859.27-1.657.363-2.348.1-.688.156-1.266.184-1.672.036-.405.033-.639.033-.639s.042.23.075.64c.025.408.042.994.029 1.697a30.387 30.387 0 01-.158 2.393c-.08.875-.199 1.808-.369 2.726a44.987 44.987 0 01-1.189 4.992 30.87 30.87 0 01-.755 2.214zM77.385 107.623l.122-1.746c.075-1.042.165-2.423.224-3.803.04-.69.053-1.381.074-2.03l.033-1.776c.008-.522.025-.96.02-1.267.003-.307.015-.484.015-.484s.05.169.122.469c.066.3.179.73.25 1.253.044.26.087.545.11.846.028.302.07.62.076.95.01.33.042.672.03 1.019-.004.347-.002.7-.02 1.052-.065 1.409-.277 2.807-.533 3.833-.118.515-.265.934-.354 1.228-.097.293-.169.456-.169.456zM70.421 110.157s.058-.938.261-2.325a45.107 45.107 0 011.052-5.023c.238-.903.528-1.797.829-2.623.287-.826.594-1.59.877-2.232.287-.64.552-1.163.749-1.523.204-.355.34-.546.34-.546s-.102.21-.242.593c-.148.378-.344.925-.547 1.59-.21.665-.434 1.441-.672 2.279-.227.837-.434 1.738-.663 2.636-.441 1.801-.898 3.602-1.288 4.944-.389 1.342-.696 2.23-.696 2.23zM68.756 105.686s.005-.177.041-.484c.045-.304.091-.746.203-1.262.206-1.037.61-2.392 1.152-3.695.134-.326.286-.644.43-.96.138-.318.313-.613.461-.908.147-.296.32-.566.474-.826.15-.263.31-.502.46-.72.288-.442.573-.782.761-1.025.192-.24.31-.372.31-.372s-.065.166-.192.445c-.136.274-.307.678-.523 1.153l-.727 1.621c-.257.595-.54 1.225-.798 1.867a129.781 129.781 0 00-1.418 3.535l-.634 1.631zM119.042 65.311s-.875.34-2.217.737a44.832 44.832 0 01-4.995 1.146c-.919.162-1.851.272-2.726.345-.869.084-1.69.125-2.391.136a22.063 22.063 0 01-1.694-.043c-.409-.037-.638-.08-.638-.08s.233.004.638-.028a22.48 22.48 0 001.672-.17 82.4 82.4 0 002.347-.342c.855-.145 1.758-.333 2.669-.501 1.817-.353 3.642-.69 5.022-.899 1.38-.208 2.313-.3 2.313-.3zM115.685 68.698s-.163.07-.456.165c-.295.087-.714.23-1.229.343-1.027.247-2.425.447-3.833.5-.352.014-.704.01-1.051.01-.346.01-.687-.026-1.016-.038-.33-.01-.648-.055-.948-.085a9.687 9.687 0 01-.845-.118c-.522-.076-.949-.193-1.249-.262a9.296 9.296 0 01-.467-.126s.178-.01.484-.012c.306.009.743-.004 1.265-.007l1.774-.018c.648-.015 1.338-.021 2.027-.056 1.379-.046 2.759-.124 3.799-.19l1.745-.106zM118.278 61.747s-.889.299-2.233.676c-1.344.378-3.146.82-4.948 1.246-.899.22-1.8.421-2.638.64-.839.231-1.616.449-2.281.653-.667.197-1.214.389-1.594.533-.382.137-.594.237-.594.237s.192-.134.549-.335c.36-.194.885-.455 1.528-.737a30.074 30.074 0 012.236-.858 30.308 30.308 0 012.626-.807 44.9 44.9 0 015.025-1.008c1.386-.19 2.324-.24 2.324-.24zM113.828 60.04l-1.634.62c-.976.367-2.266.864-3.543 1.388-.642.252-1.274.53-1.871.782l-1.625.714c-.476.212-.88.38-1.156.513-.28.125-.446.189-.446.189s.132-.117.374-.307c.245-.187.587-.469 1.032-.753.218-.15.458-.307.721-.455.262-.151.533-.322.83-.467.295-.146.592-.319.911-.453.316-.142.636-.29.962-.422 1.306-.53 2.662-.924 3.7-1.12.516-.109.958-.151 1.262-.193.306-.034.483-.037.483-.037zM112.32 94.584s-.859-.379-2.088-1.049a44.778 44.778 0 01-4.341-2.726 30.216 30.216 0 01-2.171-1.687 30.025 30.025 0 01-1.787-1.596c-.501-.492-.9-.922-1.168-1.231-.262-.315-.394-.509-.394-.509s.162.169.471.433c.304.27.748.643 1.302 1.064.549.427 1.199.906 1.902 1.42.706.503 1.477 1.01 2.24 1.535 1.534 1.038 3.063 2.09 4.186 2.921a51.581 51.581 0 011.848 1.425zM107.555 94.602s-.164-.066-.439-.206c-.269-.148-.667-.344-1.112-.628-.9-.553-2.03-1.402-3.063-2.361-.259-.239-.504-.492-.75-.736-.251-.24-.467-.506-.692-.748-.226-.24-.419-.496-.61-.73a9.547 9.547 0 01-.514-.682c-.315-.424-.535-.81-.698-1.07a9.433 9.433 0 01-.242-.42s.133.118.351.335c.21.222.529.523.9.89l1.267 1.244c.468.448.961.932 1.472 1.395 1.008.944 2.039 1.866 2.822 2.556l1.308 1.16zM114.296 91.522s-.84-.417-2.056-1.102c-1.218-.684-2.804-1.648-4.378-2.623-.792-.48-1.57-.977-2.318-1.415a82.15 82.15 0 00-2.074-1.154 22.739 22.739 0 00-1.503-.752 7.432 7.432 0 00-.587-.252s.23.04.625.15c.391.12.946.306 1.599.562.651.26 1.405.589 2.188.976.792.379 1.625.812 2.427 1.29 1.612.943 3.149 2 4.265 2.845a30.669 30.669 0 011.812 1.475zM112.356 87.165l-1.594-.719c-.949-.431-2.212-.994-3.485-1.527-.632-.277-1.275-.528-1.875-.772l-1.654-.646c-.486-.188-.891-.355-1.179-.456a9.565 9.565 0 01-.449-.183s.176.012.482.049c.304.041.745.084 1.26.198.26.049.541.107.832.19.292.078.604.149.916.257.312.105.644.193.964.324.324.124.655.245.979.383 1.297.55 2.534 1.232 3.407 1.828.441.289.783.572 1.028.757.241.193.368.317.368.317zM118.875 80.39s-.938.016-2.334-.078a44.89 44.89 0 01-5.083-.655 30.35 30.35 0 01-2.676-.621 30.064 30.064 0 01-2.291-.7 21.948 21.948 0 01-1.575-.629c-.37-.176-.571-.297-.571-.297s.218.085.609.196c.389.117.948.27 1.627.42.678.157 1.468.32 2.321.492.851.16 1.764.298 2.677.455 1.826.299 3.655.614 5.022.898 1.366.282 2.274.519 2.274.519zM114.555 82.403s-.176.01-.485-.002c-.306-.021-.749-.032-1.272-.104-1.048-.124-2.429-.422-3.768-.86-.335-.108-.664-.235-.989-.354-.328-.112-.636-.263-.941-.389-.306-.123-.588-.275-.86-.408a9.833 9.833 0 01-.752-.403c-.463-.253-.824-.51-1.081-.679-.255-.173-.395-.28-.395-.28s.171.052.459.157c.284.114.699.253 1.189.43l1.67.6c.613.21 1.263.443 1.921.65 1.31.434 2.632.84 3.631 1.137l1.673.505zM119.39 76.78s-.938-.026-2.329-.138c-1.391-.111-3.235-.321-5.072-.546-.92-.105-1.835-.23-2.697-.314a82.463 82.463 0 00-2.366-.178 22.535 22.535 0 00-1.679-.052c-.407-.004-.639.016-.639.016s.226-.059.631-.124c.405-.057.987-.12 1.687-.162a30.18 30.18 0 012.395-.03c.878.011 1.815.056 2.743.153 1.858.181 3.696.496 5.063.796a30.97 30.97 0 012.263.58zM115.805 73.637l-1.747.016c-1.043.006-2.425.025-3.804.075-.69.013-1.379.055-2.026.085l-1.771.106c-.52.034-.958.051-1.262.08-.306.021-.484.023-.484.023s.165-.064.458-.158c.293-.09.712-.236 1.227-.349.257-.064.536-.13.834-.176.298-.052.612-.118.94-.15.328-.036.666-.095 1.012-.11.346-.024.697-.053 1.049-.063 1.407-.046 2.816.056 3.858.23.522.079.95.192 1.25.258.299.075.466.133.466.133zM101.284 105.081s-.675-.653-1.596-1.708a45.114 45.114 0 01-3.131-4.063 30.524 30.524 0 01-1.454-2.334 30.318 30.318 0 01-1.125-2.118c-.3-.635-.525-1.176-.67-1.56-.138-.386-.194-.613-.194-.613s.094.214.293.57c.191.358.479.861.853 1.448a82.8 82.8 0 001.294 1.992c.489.716 1.037 1.46 1.571 2.217 1.08 1.505 2.151 3.023 2.918 4.191a51.64 51.64 0 011.241 1.978zM96.808 103.445s-.132-.118-.341-.345c-.202-.232-.508-.553-.827-.974-.653-.831-1.42-2.019-2.057-3.277-.16-.314-.304-.636-.45-.95-.153-.312-.263-.637-.39-.942-.13-.303-.222-.61-.32-.897a9.592 9.592 0 01-.247-.817c-.15-.507-.222-.945-.285-1.246a9.516 9.516 0 01-.082-.478s.084.157.214.436c.12.281.315.674.536 1.147l.759 1.606c.285.583.58 1.207.9 1.82.619 1.234 1.267 2.457 1.763 3.375l.827 1.542zM104.196 102.893s-.644-.683-1.549-1.747c-.905-1.064-2.06-2.518-3.2-3.978-.577-.726-1.136-1.461-1.686-2.132a82.085 82.085 0 00-1.547-1.8c-.458-.525-.86-.942-1.15-1.227-.285-.29-.464-.44-.464-.44s.202.117.534.358c.326.246.782.614 1.307 1.08.521.47 1.114 1.04 1.715 1.675a30.39 30.39 0 011.831 2.05 44.935 44.935 0 013.018 4.148c.754 1.181 1.191 2.013 1.191 2.013zM103.881 98.132l-1.247-1.227c-.741-.734-1.732-1.699-2.742-2.64-.497-.479-1.014-.937-1.493-1.374l-1.327-1.18c-.392-.344-.713-.641-.95-.836a9.764 9.764 0 01-.357-.327s.16.072.435.212c.271.145.67.338 1.114.623.227.136.47.288.715.466.246.175.515.35.77.559.257.207.537.404.793.639.26.228.53.456.786.698 1.027.965 1.952 2.034 2.565 2.895.314.425.537.808.702 1.067.159.265.236.425.236.425zM73.242 33.019s.34.876.735 2.22a45.097 45.097 0 011.145 5.002c.162.92.272 1.854.344 2.73.085.871.125 1.693.137 2.395.006.702-.015 1.288-.044 1.697a7.4 7.4 0 01-.08.639s.004-.234-.028-.64a22.603 22.603 0 00-.17-1.674 82.77 82.77 0 00-.342-2.35c-.144-.856-.331-1.761-.5-2.673-.352-1.82-.69-3.647-.897-5.03-.208-1.382-.3-2.316-.3-2.316zM76.623 36.38s.07.164.165.457c.087.295.23.715.343 1.231.247 1.029.446 2.429.499 3.839.014.352.01.705.01 1.052.01.346-.026.688-.038 1.018-.01.33-.054.648-.085.95a9.598 9.598 0 01-.117.845c-.077.523-.193.95-.262 1.25-.074.3-.126.469-.126.469s-.01-.178-.011-.485c.008-.306-.005-.745-.008-1.267l-.017-1.777c-.016-.648-.022-1.339-.057-2.03a130.87 130.87 0 00-.19-3.804l-.106-1.747zM69.683 33.784s.298.89.676 2.236c.377 1.346.818 3.151 1.243 4.955.22.9.42 1.803.64 2.642.23.84.448 1.619.652 2.285.197.668.388 1.215.532 1.596.137.383.237.594.237.594s-.134-.191-.335-.55c-.194-.36-.454-.885-.736-1.529a30.214 30.214 0 01-.857-2.24 30.51 30.51 0 01-.806-2.63 45.022 45.022 0 01-1.006-5.032c-.19-1.388-.24-2.327-.24-2.327zM67.978 38.24l.62 1.637c.366.977.862 2.27 1.386 3.547.251.644.529 1.276.78 1.874l.714 1.627c.21.478.379.883.512 1.158.125.28.188.447.188.447s-.117-.132-.306-.375c-.186-.245-.468-.587-.752-1.033a9.663 9.663 0 01-.454-.722c-.151-.262-.322-.534-.466-.831-.147-.296-.319-.593-.453-.913-.141-.316-.29-.636-.422-.963-.53-1.307-.922-2.666-1.119-3.705-.107-.517-.15-.96-.192-1.264-.033-.306-.036-.484-.036-.484zM47.455 49.254s.859.379 2.088 1.05a44.944 44.944 0 014.342 2.725c.764.537 1.5 1.12 2.17 1.687a30.187 30.187 0 011.787 1.597c.501.492.9.921 1.168 1.23.263.316.394.509.394.509s-.162-.168-.47-.433a22.51 22.51 0 00-1.303-1.063c-.55-.427-1.199-.907-1.901-1.42-.707-.503-1.478-1.01-2.241-1.536-1.534-1.037-3.063-2.09-4.186-2.92-1.122-.83-1.848-1.426-1.848-1.426zM52.22 49.236s.164.066.44.206c.269.147.666.343 1.111.627.9.553 2.03 1.402 3.063 2.361.259.24.504.492.75.737.251.239.467.505.692.747.226.24.42.497.61.731a9.6 9.6 0 01.514.681c.315.424.535.81.698 1.07.16.264.242.42.242.42s-.133-.118-.35-.334c-.211-.223-.53-.523-.9-.89l-1.267-1.245c-.47-.447-.962-.931-1.473-1.395a130.523 130.523 0 00-2.822-2.556l-1.308-1.16zM45.479 52.315s.84.418 2.057 1.102c1.217.685 2.803 1.648 4.378 2.623.791.48 1.57.977 2.318 1.416.755.43 1.459.827 2.074 1.153.61.333 1.132.585 1.502.752.368.174.588.253.588.253s-.23-.041-.625-.151a22.056 22.056 0 01-1.6-.561c-.651-.26-1.404-.59-2.188-.977a30.402 30.402 0 01-2.426-1.29c-1.613-.943-3.15-2-4.266-2.845-1.114-.846-1.812-1.475-1.812-1.475zM47.42 56.673l1.593.718c.95.432 2.212.994 3.485 1.527.633.277 1.276.528 1.876.772l1.653.646c.486.188.89.355 1.18.456.286.11.448.183.448.183s-.176-.011-.482-.048c-.304-.042-.745-.085-1.26-.198-.26-.05-.54-.108-.831-.19-.292-.078-.605-.15-.917-.258-.312-.105-.644-.193-.964-.324-.324-.124-.655-.244-.979-.383-1.297-.549-2.534-1.232-3.407-1.827-.441-.29-.783-.572-1.028-.758-.24-.193-.368-.316-.368-.316zM40.9 63.448s.938-.016 2.334.077a44.86 44.86 0 015.083.655c.918.167 1.83.387 2.676.622.846.222 1.63.468 2.29.7.662.237 1.203.46 1.576.628.37.177.57.297.57.297s-.217-.085-.608-.195a22.52 22.52 0 00-1.627-.42 82.215 82.215 0 00-2.321-.492c-.852-.161-1.764-.298-2.677-.455-1.826-.3-3.655-.615-5.022-.898-1.367-.283-2.274-.52-2.274-.52zM45.22 61.434s.177-.01.485.003c.306.02.749.032 1.272.104 1.049.124 2.43.421 3.768.86.335.108.664.234.99.353.328.112.635.264.94.39.306.123.589.275.86.407.274.13.523.27.752.403.463.253.824.51 1.08.68.256.172.396.28.396.28s-.17-.052-.459-.157c-.284-.114-.699-.254-1.189-.431l-1.67-.6c-.613-.21-1.263-.442-1.921-.649-1.31-.434-2.632-.84-3.631-1.138l-1.673-.505zM40.385 67.057s.938.027 2.329.139c1.391.11 3.235.32 5.072.546.92.105 1.834.229 2.697.313.867.075 1.67.14 2.366.178.693.047 1.273.057 1.679.053.406.004.639-.017.639-.017s-.226.06-.63.125c-.406.057-.988.12-1.688.161-.7.038-1.522.054-2.395.03a30.34 30.34 0 01-2.743-.153 44.877 44.877 0 01-5.063-.795c-1.367-.302-2.263-.58-2.263-.58zM43.97 70.2l1.747-.015c1.043-.006 2.425-.025 3.804-.075.69-.013 1.379-.055 2.026-.085l1.77-.107c.52-.033.959-.05 1.263-.08.306-.02.484-.022.484-.022s-.165.063-.458.158c-.294.09-.712.236-1.227.349a9.592 9.592 0 01-.834.176c-.298.051-.612.118-.94.15-.328.035-.666.095-1.012.11-.346.023-.697.053-1.049.063-1.407.045-2.816-.056-3.858-.231-.522-.078-.95-.191-1.25-.257-.3-.075-.466-.133-.466-.133zM58.492 38.757s.674.653 1.596 1.708a44.937 44.937 0 013.13 4.063 30.4 30.4 0 011.454 2.334c.441.756.822 1.485 1.126 2.117.3.636.525 1.177.67 1.56.137.386.194.614.194.614s-.094-.215-.293-.57c-.192-.358-.48-.862-.853-1.449a82.162 82.162 0 00-1.294-1.991c-.489-.717-1.037-1.46-1.571-2.217-1.081-1.505-2.152-3.023-2.918-4.191-.767-1.168-1.241-1.978-1.241-1.978zM62.968 40.392s.132.119.34.345c.203.232.508.554.827.975.654.83 1.42 2.018 2.058 3.276.16.314.303.636.45.951.152.312.263.636.39.941.13.304.221.611.32.897.102.285.18.562.247.818.149.507.222.944.285 1.245.058.303.081.478.081.478s-.084-.157-.213-.435c-.12-.282-.315-.675-.537-1.147l-.758-1.607c-.285-.582-.58-1.207-.9-1.82a130.534 130.534 0 00-1.763-3.375l-.827-1.542zM55.58 40.945s.643.683 1.548 1.747 2.06 2.518 3.2 3.978c.578.725 1.136 1.46 1.686 2.131.56.666 1.084 1.282 1.547 1.801.458.524.861.942 1.15 1.227.286.29.465.44.465.44s-.202-.118-.535-.358a22.098 22.098 0 01-1.307-1.081 30.192 30.192 0 01-1.715-1.674 30.394 30.394 0 01-1.831-2.051 45 45 0 01-3.018-4.148 30.967 30.967 0 01-1.19-2.012zM55.894 45.706l1.247 1.226c.741.734 1.732 1.7 2.742 2.64.497.48 1.014.938 1.493 1.375l1.327 1.179c.391.345.713.642.95.837.23.202.357.326.357.326s-.16-.07-.435-.212c-.271-.144-.67-.337-1.114-.622a9.628 9.628 0 01-.715-.466c-.247-.175-.515-.35-.77-.56-.257-.207-.538-.404-.793-.638-.26-.229-.53-.456-.786-.698-1.028-.965-1.952-2.035-2.565-2.896-.314-.424-.537-.808-.703-1.067a5.786 5.786 0 01-.235-.424zM99.069 37.59s-.417.842-1.101 2.06c-.683 1.22-1.646 2.808-2.62 4.385-.479.793-.975 1.572-1.412 2.321-.43.757-.826 1.461-1.152 2.077a22.611 22.611 0 00-.751 1.505c-.174.368-.252.588-.252.588s.04-.23.15-.626c.118-.392.305-.947.56-1.602.26-.652.588-1.406.976-2.19.377-.794.81-1.628 1.287-2.431a45.006 45.006 0 012.841-4.271c.846-1.117 1.474-1.815 1.474-1.815zM94.718 39.534L94 41.13c-.43.95-.992 2.216-1.525 3.49-.276.634-.527 1.278-.77 1.879l-.645 1.655c-.188.487-.355.892-.456 1.181-.11.287-.182.45-.182.45s.01-.176.048-.482c.041-.305.084-.747.197-1.263.05-.26.108-.541.19-.832.078-.293.149-.606.257-.918.105-.313.193-.645.324-.966.124-.324.244-.656.382-.98.549-1.3 1.23-2.538 1.825-3.412.289-.442.571-.784.756-1.03.194-.24.317-.368.317-.368zM102.127 39.57s-.379.86-1.048 2.09a45.134 45.134 0 01-2.723 4.349 30.434 30.434 0 01-1.684 2.173 30.185 30.185 0 01-1.594 1.79c-.492.502-.92.9-1.229 1.17-.315.262-.508.394-.508.394s.168-.162.432-.472c.27-.304.642-.748 1.062-1.303.427-.55.906-1.201 1.418-1.905.503-.707 1.009-1.48 1.534-2.244 1.035-1.536 2.087-3.067 2.916-4.191.829-1.125 1.424-1.85 1.424-1.85zM102.143 44.342s-.065.164-.205.44c-.147.27-.343.668-.627 1.113-.552.902-1.4 2.033-2.357 3.067-.239.26-.491.505-.736.751-.239.252-.505.468-.746.693-.24.227-.496.42-.73.611a9.615 9.615 0 01-.68.515c-.424.316-.808.536-1.069.699-.263.16-.42.242-.42.242s.119-.133.335-.351c.222-.21.522-.53.889-.901l1.242-1.269c.448-.47.93-.962 1.394-1.475.942-1.01 1.863-2.041 2.552-2.825l1.158-1.31zM111.274 47.646s-.731.59-1.861 1.409c-1.13.82-2.669 1.86-4.212 2.883-.767.52-1.543 1.02-2.254 1.516a81.47 81.47 0 00-1.914 1.403c-.558.416-1.005.785-1.311 1.052-.312.261-.475.428-.475.428s.133-.192.398-.505c.271-.306.674-.733 1.179-1.22a30.503 30.503 0 011.801-1.58 30.36 30.36 0 012.186-1.668 44.814 44.814 0 014.366-2.687 30.94 30.94 0 012.097-1.03zM106.509 47.586l-1.319 1.149c-.789.683-1.827 1.596-2.844 2.53-.516.46-1.012.939-1.485 1.383l-1.278 1.233c-.374.363-.695.661-.907.882-.22.214-.354.331-.354.331s.084-.155.245-.418c.166-.26.39-.642.708-1.063.153-.216.323-.447.52-.677.193-.233.388-.487.617-.725.226-.24.445-.505.698-.742.248-.242.496-.493.757-.73 1.041-.95 2.178-1.788 3.084-2.333.447-.28.846-.473 1.117-.618.276-.137.441-.202.441-.202zM113.222 50.726s-.703.622-1.825 1.459a45.014 45.014 0 01-4.29 2.807c-.806.47-1.643.896-2.438 1.268-.787.38-1.544.703-2.197.957-.656.25-1.212.431-1.604.546-.396.107-.627.146-.627.146s.221-.077.59-.248c.372-.163.896-.41 1.509-.738.618-.321 1.325-.711 2.084-1.135.752-.432 1.535-.921 2.331-1.395 1.583-.96 3.178-1.91 4.401-2.583 1.223-.674 2.066-1.084 2.066-1.084zM111.243 55.066s-.128.122-.371.313c-.246.183-.59.463-1.034.748-.878.588-2.121 1.26-3.424 1.797-.325.136-.657.253-.981.374-.322.129-.655.213-.968.316-.313.106-.626.174-.918.25-.292.08-.573.135-.833.182-.517.109-.958.148-1.263.187-.306.034-.482.043-.482.043s.163-.071.451-.178c.289-.099.695-.262 1.183-.446l1.659-.631c.602-.239 1.247-.484 1.882-.755a129.253 129.253 0 003.499-1.496l1.6-.704zM84.805 32.667s-.1.933-.32 2.313c-.22 1.38-.574 3.205-.943 5.022-.176.91-.372 1.813-.524 2.667-.142.86-.27 1.658-.363 2.348-.1.69-.156 1.267-.184 1.672-.035.406-.033.64-.033.64s-.042-.23-.075-.64a22.088 22.088 0 01-.028-1.697c.017-.701.065-1.523.157-2.393.081-.876.199-1.808.369-2.727a45.07 45.07 0 011.19-4.992c.407-1.34.754-2.213.754-2.213zM81.394 35.998l-.121 1.746a131.081 131.081 0 00-.225 3.803c-.04.69-.053 1.38-.074 2.03l-.032 1.776c-.008.522-.025.96-.02 1.266-.004.307-.016.485-.016.485s-.05-.17-.121-.47c-.066-.3-.179-.729-.251-1.252a9.698 9.698 0 01-.11-.847c-.028-.301-.07-.62-.076-.95-.009-.33-.041-.672-.03-1.018.005-.347.003-.7.02-1.052.066-1.41.278-2.808.533-3.834.119-.515.265-.934.354-1.228a5.83 5.83 0 01.17-.455zM88.358 33.464s-.058.938-.26 2.324a45.055 45.055 0 01-1.052 5.023 30.513 30.513 0 01-.829 2.623c-.287.827-.594 1.59-.877 2.232a22.16 22.16 0 01-.749 1.523c-.204.356-.34.546-.34.546s.102-.21.242-.592a22.6 22.6 0 00.546-1.591c.21-.664.435-1.44.672-2.279.227-.837.435-1.737.664-2.636.44-1.8.898-3.601 1.287-4.943.39-1.343.696-2.23.696-2.23zM90.023 37.935s-.004.177-.04.483c-.046.305-.091.746-.204 1.262-.206 1.038-.61 2.393-1.152 3.695-.134.326-.286.644-.43.96-.137.319-.312.614-.461.908-.147.296-.32.566-.473.827-.15.263-.31.501-.46.719-.289.442-.573.782-.762 1.026-.192.24-.31.372-.31.372s.066-.166.193-.445c.135-.275.307-.678.522-1.154l.728-1.62c.257-.596.54-1.226.797-1.867a130.026 130.026 0 001.418-3.536l.634-1.63z" fill="#763713"/><path d="M63.035 60.025l.126-.198c-.221-.1-.922-.507-1.898-1.093.858.607 1.501 1.073 1.772 1.29zM96.678 59.564l.045.069c.22-.157.477-.339.769-.544-.32.19-.595.35-.814.475zM69.412 88a19.957 19.957 0 01-.691-.446c-.452.698-1.18 1.864-1.955 3.096a27.071 27.071 0 00-1.741 3.252 27.03 27.03 0 002.69-3.376c.636-.946 1.244-1.846 1.697-2.526zM61.263 58.734c-.65-.458-1.419-.996-2.244-1.569a23.803 23.803 0 00-2.45-1.484 23.87 23.87 0 002.257 1.574c.897.55 1.736 1.06 2.437 1.48zM97.492 59.089c.794-.47 1.863-1.118 3.032-1.834a23.884 23.884 0 002.167-1.502 27.05 27.05 0 00-3.042 1.83c-.784.547-1.539 1.072-2.157 1.506zM83.438 51c.23-.833.642-2.494 1.1-4.395 1.502-6.235.441-12.635-3.056-18.48l-1.186-1.982c-.063-.19-.457-.19-.52 0-4.317 6.621-5.866 13.94-4.467 21.131.306 1.569.588 3.043.755 3.817a20.184 20.184 0 013.941-.389c1.171 0 2.317.106 3.433.298z" fill="#FC0"/><path d="M96.678 59.564c.219-.125.493-.285.814-.475.618-.434 1.373-.959 2.157-1.506a27.04 27.04 0 013.042-1.83c4.297-3.333 7.296-8.035 8.721-13.73l.561-2.241c.09-.179-.189-.458-.367-.368-7.728 1.625-13.992 5.703-18.08 11.78-.833 1.237-1.62 2.4-2.07 3.09a20.253 20.253 0 015.222 5.28zM124.658 70.63c-6.612-4.323-13.921-5.874-21.102-4.473-1.566.306-3.038.589-3.81.755.252 1.277.388 2.596.388 3.948 0 1.172-.106 2.32-.298 3.438.832.23 2.491.643 4.388 1.101 6.226 1.504 12.618.442 18.454-3.06l1.98-1.188c.19-.063.19-.457 0-.52zM61.263 58.734c.976.586 1.677.993 1.898 1.093a20.25 20.25 0 014.94-5.22c-.377-.599-1.297-1.956-2.278-3.414-4.088-6.076-10.351-10.154-18.08-11.779-.178-.09-.457.19-.367.368l.561 2.241c1.415 5.655 4.383 10.33 8.631 13.658.839.444 1.658.934 2.45 1.484.826.573 1.596 1.11 2.245 1.57zM60.264 66.912c-.773-.166-2.244-.45-3.81-.755-7.182-1.401-14.49.15-21.102 4.474-.19.063-.19.457 0 .52l1.98 1.188c5.836 3.502 12.227 4.564 18.453 3.06 1.898-.459 3.556-.87 4.389-1.102a20.293 20.293 0 01-.298-3.437c0-1.352.135-2.67.388-3.948zM76.063 90.629c-.166.774-.449 2.248-.754 3.816-1.4 7.192.15 14.51 4.467 21.132.063.19.457.19.52 0l1.186-1.982c3.497-5.845 4.558-12.246 3.055-18.481-.457-1.9-.869-3.561-1.1-4.394a20.206 20.206 0 01-3.432.298 20.2 20.2 0 01-3.942-.39zM91.21 87.607c.347.56 1.297 1.963 2.316 3.477 4.088 6.076 10.352 10.154 18.08 11.779.178.09.457-.189.367-.368l-.561-2.241c-1.654-6.61-5.423-11.887-10.888-15.232-1.878-1.15-3.498-2.124-4.13-2.467a20.247 20.247 0 01-5.184 5.052zM68.72 87.554a20.25 20.25 0 01-5.027-4.89c-.789.468-1.834 1.101-2.976 1.8-5.465 3.346-9.234 8.622-10.889 15.232l-.56 2.241c-.09.179.188.459.367.368 6.194-1.302 11.444-4.184 15.39-8.404a27.084 27.084 0 011.74-3.251c.775-1.232 1.504-2.398 1.956-3.096zM97.492 59.09c-.293.204-.55.386-.769.542a20.063 20.063 0 012.937 6.884c.887-.135 2.5-.418 4.33-.75 6.302-1.144 11.719-4.702 15.644-10.269l1.331-1.887c.149-.134-.011-.495-.21-.476-6.521-1.07-12.702-.16-18.064 2.619a24.004 24.004 0 01-2.167 1.502c-1.17.716-2.238 1.363-3.032 1.834zM100.177 84.554c5.264 3.654 11.607 4.974 18.313 3.818l2.274-.392c.2.01.342-.358.187-.486-4.607-6.422-10.863-10.51-18.066-11.8-1.222-.218-2.382-.429-3.207-.57a20.06 20.06 0 01-2.968 6.985c.746.546 2.024 1.444 3.467 2.445zM84.96 95.023c1.142 6.311 4.695 11.736 10.253 15.667l1.885 1.333c.134.149.495-.011.475-.21 1.277-7.804-.26-15.126-4.442-21.137-.82-1.178-1.59-2.291-2.075-2.97a19.995 19.995 0 01-6.861 2.871c.127.862.42 2.538.765 4.446zM93.021 51.075c3.898-6.2 5.09-13.586 3.451-21.321.01-.2-.357-.343-.484-.188l-1.82 1.42c-5.37 4.186-8.665 9.772-9.512 16.13-.217 1.625-.402 3.08-.507 4.016a19.998 19.998 0 016.986 2.933c.455-.707 1.149-1.817 1.886-2.99zM74.781 47.386c-1.622-7.145-5.994-13.212-12.615-17.52-.134-.15-.494.01-.475.21l-.285 2.292c-.84 6.762.773 13.046 4.664 18.141 1.184 1.552 2.23 2.903 2.778 3.573a20.002 20.002 0 016.784-2.898c-.16-.774-.497-2.238-.851-3.798zM56.565 76.091c-7.134 1.625-13.193 6.002-17.496 12.633-.148.134.011.495.21.476l2.29.285c6.752.841 13.027-.774 18.115-4.67 1.549-1.186 2.899-2.234 3.567-2.782a20.063 20.063 0 01-2.893-6.794c-.774.16-2.236.497-3.793.852z" fill="#FC0"/><path d="M67.715 90.526a27.022 27.022 0 01-2.69 3.376c-2.473 5.463-3.072 11.644-1.71 18.069-.01.2.357.343.484.188l1.82-1.419c5.369-4.187 8.665-9.773 9.512-16.13.22-1.659.41-3.14.513-4.072A19.986 19.986 0 0169.412 88c-.453.68-1.061 1.58-1.697 2.526zM61.263 58.734c-.701-.42-1.54-.93-2.437-1.48a23.84 23.84 0 01-2.257-1.573c-4.734-2.504-10.167-3.316-15.863-2.334l-2.274.392c-.2-.01-.342.358-.188.486 4.608 6.422 10.864 10.511 18.066 11.8 1.692.303 3.27.59 3.992.699a20.051 20.051 0 012.733-6.7c-.27-.217-.914-.683-1.772-1.29z" fill="#FC0"/><path d="M96.7 82.095c.747.545 2.025 1.442 3.469 2.442 5.267 3.65 11.611 4.965 18.317 3.803l2.273-.393c.072.003.136-.043.182-.11L98.459 78.87a20.057 20.057 0 01-1.759 3.226zM84.5 46.6c1.498-6.236.432-12.635-3.07-18.478l-1.187-1.98L79.97 50.7a20.2 20.2 0 013.433.295c.23-.834.64-2.495 1.096-4.395zM91.103 54.055c.455-.707 1.148-1.817 1.884-2.99 3.893-6.204 5.08-13.591 3.435-21.325.007-.144-.181-.256-.334-.251l-8.58 22.674a20.07 20.07 0 013.595 1.892zM96.65 59.55c.22-.125.494-.286.814-.476.618-.434 1.372-.96 2.156-1.507a27.052 27.052 0 013.041-1.833c4.294-3.336 7.289-8.04 8.71-13.736l.559-2.242c.039-.078.007-.173-.055-.25L94.338 56.73a20.158 20.158 0 012.313 2.819zM99.638 66.499c.887-.136 2.5-.42 4.33-.753 6.301-1.149 11.715-4.711 15.636-10.28l1.33-1.89c.053-.047.065-.124.052-.202l-22.483 9.579a20.115 20.115 0 011.135 3.546zM100.111 70.658c0 .062.004.123.004.185a20.245 20.245 0 01-.294 3.438c.832.23 2.491.641 4.389 1.098 6.227 1.5 12.617.432 18.451-3.075l1.979-1.189c.06-.02.099-.075.121-.142l-24.65-.315zM91.204 87.597c.348.56 1.3 1.962 2.32 3.475 4.093 6.073 10.359 10.146 18.089 11.765.1.051.23-.017.311-.116L93.742 85.564a20.08 20.08 0 01-2.538 2.033zM84.192 90.573c.128.861.422 2.537.769 4.445 1.147 6.31 4.704 11.732 10.266 15.659l1.885 1.331c.084.093.256.066.368-.016l-9.743-22.53a19.928 19.928 0 01-3.545 1.11zM75.309 94.447c-1.394 7.193.161 14.511 4.484 21.129.026.078.109.123.201.136l-.016-24.696c-1.341 0-2.65-.135-3.918-.386-.166.775-.447 2.249-.751 3.817zM67.712 90.535a27.034 27.034 0 01-2.687 3.377c-2.47 5.466-3.063 11.647-1.697 18.071-.004.092.072.17.167.215l8.764-22.732a20.002 20.002 0 01-2.852-1.46c-.452.682-1.06 1.582-1.695 2.529zM63.684 82.675c-.788.469-1.833 1.103-2.975 1.803-5.462 3.35-9.227 8.63-10.876 15.24l-.56 2.242c-.045.092.006.209.09.29l16.785-16.762c-.904-.86-1.73-1.8-2.464-2.813zM60.343 75.253c-.774.16-2.235.5-3.793.855-7.132 1.63-13.188 6.013-17.485 12.646-.073.066-.071.185-.028.288l22.568-9.977a20.083 20.083 0 01-1.262-3.812zM60.243 66.927c-.773-.167-2.245-.448-3.812-.753-7.182-1.396-14.489.162-21.098 4.49-.071.024-.116.096-.133.178l24.66-.1a20.3 20.3 0 01.383-3.815zM63.008 60.037c-.27-.218-.914-.683-1.773-1.29-.701-.419-1.541-.928-2.438-1.477-.79-.482-1.54-1.01-2.259-1.572-4.736-2.5-10.169-3.307-15.864-2.32l-2.274.393c-.118-.006-.214.12-.242.25l23.29 8.991c.44-1.038.96-2.034 1.56-2.975zM68.07 54.615c-.377-.598-1.298-1.955-2.28-3.412-4.093-6.073-10.36-10.146-18.089-11.765-.077-.039-.172-.007-.25.055L65.349 57.03a20.208 20.208 0 012.722-2.415zM62.116 29.878c-.078-.087-.232-.067-.344.003l10.239 22.47a20.016 20.016 0 013.587-1.164c-.16-.775-.498-2.239-.854-3.798-1.627-7.143-6.004-13.207-12.628-17.511z" fill="#F8A21C"/><path d="M100.083 66.845c-.027-.136-.058-.27-.087-.404a20.405 20.405 0 00-2.987-7l-.046-.07A20.598 20.598 0 0091.652 54c-.109-.075-.217-.15-.327-.223a20.34 20.34 0 00-7.106-2.984c-.239-.05-.48-.092-.723-.134a20.559 20.559 0 00-3.491-.303c-1.373 0-2.713.138-4.01.396-.146.03-.292.063-.438.095a20.343 20.343 0 00-7.66 3.481 20.594 20.594 0 00-5.024 5.31l-.128.2a20.392 20.392 0 00-2.78 6.814l-.038.192a20.622 20.622 0 00-.395 4.015 20.638 20.638 0 00.49 4.454 20.405 20.405 0 002.943 6.91c.145.217.296.43.449.641a20.596 20.596 0 005.114 4.974c.23.156.466.306.703.453a20.328 20.328 0 006.339 2.582c.142.031.283.064.426.093 1.296.257 2.636.395 4.009.395a20.55 20.55 0 003.491-.303c.259-.044.516-.09.77-.145a20.338 20.338 0 006.979-2.92c.051-.035.105-.067.156-.101a20.595 20.595 0 005.273-5.138c.108-.15.218-.3.321-.454a20.414 20.414 0 003.18-7.945c.195-1.137.303-2.304.303-3.496a20.66 20.66 0 00-.395-4.015z" fill="#1C0C07"/><path d="M67.623 54.955l-2.731-5.475 4.97 4.102-2.239 1.373zM75.249 51.906l-.672-6.084 3.246 5.571-2.574.513zM82.819 51.16l1.934-5.805.618 6.42-2.552-.614zM90.364 54.404l3.82-4.777-1.638 6.238-2.182-1.46zM95.722 58.67l5.691-2.229-4.528 4.587-1.163-2.357zM99.15 65.41l6.094.465-6.068 2.163-.026-2.628zM60.75 65.539l-6.095.465 6.068 2.163.026-2.628zM64.668 59.493l-5.792-1.955 4.742 4.365 1.05-2.41zM63.085 80.615l-3.593 4.952 5.576-3.229-1.983-1.722zM95.645 83.194l5.717 2.164-4.582-4.534-1.135 2.37zM98.636 75.461l6.1.374-5.715-2.974-.385 2.6zM61.166 75.588l-6.089.523 5.64-3.113.45 2.59zM68.657 87.329l-2.732 5.475 4.97-4.102-2.238-1.373zM75.688 90.265l-.671 6.084 2.807-5.77-2.136-.314zM82.94 91.175l2.099 4.7.332-5.678-2.431.978zM90.364 87.568l3.82 4.777-1.638-6.238-2.182 1.46z" fill="#1C0C07"/><path d="M78.489 37.983l.034.534c.015.339.05.824.064 1.405.02.58.05 1.258.066 1.983l.053 2.272.033 1.152c.015.38.022.753.044 1.114.041.725.105 1.397.163 1.974.055.577.125 1.056.182 1.39.054.334.103.522.103.522s-.07-.181-.163-.509a18.418 18.418 0 01-.304-1.377 31.436 31.436 0 01-.276-1.974 26.83 26.83 0 01-.179-2.28 45.618 45.618 0 01.03-4.269c.023-.582.07-1.066.096-1.405.028-.339.054-.532.054-.532zM76.323 41.312l.042.4c.024.252.07.613.124 1.045.053.431.12.933.198 1.47.083.535.165 1.107.273 1.674.094.569.211 1.134.32 1.665.115.529.22 1.024.325 1.446.099.423.18.777.249 1.023.062.247.092.39.092.39s-.064-.13-.167-.364c-.101-.235-.254-.568-.398-.982a9.167 9.167 0 01-.227-.67c-.073-.241-.16-.493-.222-.76-.065-.266-.148-.538-.201-.821-.059-.282-.123-.568-.172-.857a20.711 20.711 0 01-.227-1.703 17.35 17.35 0 01-.075-1.496c-.008-.439.018-.804.03-1.06.015-.255.036-.4.036-.4zM81.52 37.983s.026.193.054.532c.026.34.074.823.096 1.405.066 1.163.094 2.716.03 4.27a26.832 26.832 0 01-.178 2.28c-.083.722-.172 1.4-.276 1.973a18.472 18.472 0 01-.304 1.377c-.093.328-.164.509-.164.509s.05-.188.103-.523a18.8 18.8 0 00.182-1.39c.059-.576.122-1.248.163-1.973.023-.361.03-.734.045-1.114l.033-1.152.053-2.272c.015-.725.046-1.403.066-1.983.014-.581.05-1.066.064-1.405l.034-.534zM83.687 41.312s.02.145.037.4c.01.256.037.621.03 1.06-.002.439-.027.95-.077 1.496a20.697 20.697 0 01-.226 1.703c-.05.29-.113.575-.172.857-.053.283-.136.555-.201.821-.063.267-.15.519-.222.76-.07.24-.15.465-.227.67-.144.414-.297.747-.398.982-.103.234-.167.365-.167.365s.03-.144.092-.391c.068-.245.15-.6.249-1.023.105-.422.21-.917.325-1.446.109-.53.226-1.096.32-1.665.108-.568.19-1.14.273-1.675.077-.536.145-1.038.198-1.47.053-.43.1-.791.124-1.045l.042-.399zM112.903 69.342l-.533.034c-.339.014-.823.05-1.403.064-.58.02-1.256.05-1.981.066l-2.268.053-1.15.033c-.38.015-.752.022-1.113.045-.724.04-1.394.104-1.971.163-.577.055-1.054.124-1.388.182-.333.054-.521.103-.521.103s.181-.07.508-.163c.328-.088.802-.199 1.375-.305a31.286 31.286 0 011.971-.276c.724-.09 1.501-.15 2.276-.18a45.353 45.353 0 014.264.031c.581.022 1.064.07 1.403.096.338.028.531.054.531.054zM109.578 67.173l-.398.042c-.253.024-.613.07-1.044.124-.431.053-.932.12-1.468.198-.534.083-1.105.165-1.672.273-.568.095-1.133.212-1.662.321-.529.115-1.023.22-1.444.325-.423.1-.777.182-1.022.25-.247.062-.39.092-.39.092s.131-.064.364-.167c.234-.101.567-.255.981-.399.205-.077.428-.157.669-.228.24-.072.492-.158.758-.222.266-.065.538-.148.821-.201.281-.059.566-.123.855-.172a20.574 20.574 0 011.7-.227c.546-.05 1.057-.074 1.495-.076.437-.007.803.019 1.057.03.255.016.4.037.4.037zM112.903 72.378s-.193.025-.532.053c-.338.026-.822.074-1.402.096a45.353 45.353 0 01-4.264.03 26.741 26.741 0 01-2.276-.178 31.281 31.281 0 01-1.971-.277 18.323 18.323 0 01-1.375-.304 6.103 6.103 0 01-.509-.164s.188.05.522.103c.333.058.811.128 1.388.183.576.058 1.247.122 1.97.163.362.022.734.029 1.113.044l1.151.033 2.268.054c.724.015 1.401.046 1.981.066.58.014 1.064.05 1.403.064l.533.034zM109.578 74.547s-.145.02-.4.037c-.254.01-.62.037-1.057.03a17.375 17.375 0 01-1.495-.076 20.533 20.533 0 01-1.7-.228c-.289-.048-.574-.113-.855-.171-.283-.053-.555-.137-.821-.202-.266-.063-.517-.15-.758-.222a8.985 8.985 0 01-.669-.228c-.414-.143-.747-.297-.981-.398-.233-.103-.364-.167-.364-.167s.143.03.39.092c.245.068.599.15 1.022.25.421.104.915.21 1.444.324.529.11 1.094.227 1.662.321.567.109 1.138.19 1.672.273.536.078 1.037.145 1.468.199.431.053.791.1 1.044.124l.398.042zM102.318 46.685l-.353.402c-.229.25-.546.618-.946 1.038-.397.425-.853.926-1.354 1.45l-1.566 1.644-.79.837c-.258.28-.516.548-.756.82a44.185 44.185 0 00-1.278 1.511c-.37.447-.658.835-.853 1.111-.198.275-.296.443-.296.443s.078-.178.244-.476c.17-.294.427-.708.757-1.189a31.43 31.43 0 011.199-1.59c.448-.577.955-1.17 1.483-1.739a45.575 45.575 0 013.036-2.998c.427-.396.802-.704 1.06-.925.259-.22.413-.339.413-.339zM98.436 47.506l-.252.312c-.162.196-.383.484-.65.827-.267.343-.574.745-.898 1.18-.32.436-.665.899-.99 1.376-.334.47-.65.953-.948 1.405-.293.455-.568.88-.792 1.252-.229.37-.421.678-.546.9-.131.218-.211.341-.211.341s.047-.138.14-.376c.094-.237.22-.581.412-.976.09-.2.191-.415.312-.635.119-.222.235-.46.38-.694.141-.234.275-.485.437-.723.158-.241.314-.489.484-.727.335-.48.69-.944 1.042-1.365.35-.422.694-.8 1.003-1.112.304-.315.58-.556.769-.728.191-.169.308-.257.308-.257zM104.462 48.832s-.118.155-.338.414c-.22.258-.529.634-.924 1.061a45.393 45.393 0 01-2.993 3.041 26.889 26.889 0 01-1.736 1.486c-.57.452-1.11.868-1.589 1.2-.48.33-.893.588-1.187.758-.297.166-.475.244-.475.244s.168-.098.442-.296c.276-.195.663-.484 1.11-.854.449-.367.968-.797 1.508-1.28.272-.24.54-.499.819-.757l.837-.79 1.641-1.57c.523-.501 1.023-.958 1.447-1.355.42-.401.788-.719 1.038-.948l.4-.354zM103.643 52.72s-.088.117-.256.31c-.173.187-.412.465-.727.77-.311.308-.69.653-1.11 1.004a20.68 20.68 0 01-1.364 1.043c-.238.17-.485.327-.725.485-.238.162-.489.296-.723.438-.233.144-.471.261-.692.38a9.12 9.12 0 01-.635.313c-.394.191-.737.318-.974.412-.238.093-.376.14-.376.14s.123-.08.341-.211c.221-.126.53-.318.898-.547.372-.224.797-.5 1.25-.793.453-.298.934-.615 1.403-.95.477-.325.939-.671 1.375-.991.434-.324.836-.632 1.178-.899.343-.267.63-.49.826-.652l.311-.252zM110.134 57.094l-.488.216c-.313.132-.755.333-1.294.547-.538.22-1.162.483-1.836.748l-2.11.837-1.068.43c-.35.145-.697.28-1.028.427-.665.29-1.272.58-1.793.836a18.69 18.69 0 00-1.239.652c-.294.166-.454.277-.454.277s.146-.129.42-.33c.278-.196.684-.464 1.186-.762a31.1 31.1 0 011.753-.942 26.68 26.68 0 012.074-.956 45.276 45.276 0 014.011-1.45c.552-.18 1.022-.303 1.349-.396.327-.091.517-.134.517-.134zM106.265 56.211l-.359.178c-.229.11-.551.279-.936.478-.386.2-.833.437-1.309.695-.473.263-.98.538-1.474.836-.501.285-.99.591-1.449.877-.456.29-.884.561-1.242.806-.363.239-.666.439-.873.587-.21.144-.334.222-.334.222s.1-.105.284-.283c.185-.176.444-.435.782-.713a9.07 9.07 0 01.55-.446c.2-.152.406-.32.634-.471.227-.154.453-.326.7-.474.244-.152.489-.312.743-.457a20.572 20.572 0 011.517-.803c.495-.236.965-.436 1.376-.589.408-.159.76-.26 1.002-.339.245-.073.388-.104.388-.104zM111.183 59.943s-.172.09-.48.234c-.308.142-.745.354-1.283.576a45.367 45.367 0 01-3.99 1.506 26.73 26.73 0 01-2.197.621c-.706.173-1.371.324-1.944.424-.575.1-1.057.16-1.396.191-.34.027-.533.023-.533.023s.193-.02.525-.084a18.78 18.78 0 001.365-.31 44.128 44.128 0 001.905-.53c.347-.104.698-.227 1.06-.344l1.09-.368 2.147-.736c.685-.237 1.33-.442 1.881-.624.549-.189 1.015-.323 1.338-.426l.512-.153zM108.814 63.13s-.129.07-.363.173c-.235.099-.569.25-.982.394-.411.15-.899.305-1.428.447-.529.143-1.099.272-1.674.376-.287.055-.577.093-.862.136-.284.048-.567.064-.839.095-.272.033-.537.04-.788.054a9.01 9.01 0 01-.707.018c-.438.01-.803-.02-1.057-.033-.255-.016-.4-.031-.4-.031s.145-.021.398-.049c.253-.02.614-.066 1.045-.12.431-.047.931-.12 1.467-.195.534-.082 1.104-.167 1.671-.275.568-.095 1.132-.216 1.663-.324a73.643 73.643 0 001.445-.322c.423-.1.777-.18 1.023-.245l.388-.1zM91.5 40.072l-.192.499c-.128.314-.299.77-.53 1.303-.224.535-.48 1.164-.769 1.829l-.901 2.085-.452 1.06c-.145.351-.294.693-.425 1.03-.266.676-.49 1.312-.678 1.861a18.762 18.762 0 00-.415 1.338c-.091.327-.125.518-.125.518s.011-.194.064-.53a18.5 18.5 0 01.3-1.379c.145-.565.348-1.216.575-1.908.221-.696.492-1.428.79-2.145a45.521 45.521 0 011.813-3.865c.263-.519.51-.938.674-1.235.167-.296.271-.46.271-.46zM88.141 42.187l-.128.38c-.085.24-.193.587-.325 1.002-.132.414-.28.898-.434 1.417-.15.521-.314 1.075-.453 1.635-.152.557-.282 1.12-.405 1.647-.117.528-.228 1.022-.31 1.449-.087.426-.16.782-.201 1.033-.047.25-.08.394-.08.394s-.003-.146 0-.401c.007-.256.007-.622.05-1.059a9.17 9.17 0 01.074-.704c.034-.25.061-.514.116-.783.052-.269.09-.55.16-.83.065-.28.127-.567.203-.85.15-.565.322-1.125.506-1.641.183-.517.375-.992.557-1.391.176-.401.353-.723.47-.95.121-.224.2-.348.2-.348zM94.254 41.343s-.058.187-.174.506c-.118.319-.278.778-.5 1.316a45.508 45.508 0 01-1.758 3.89c-.351.693-.731 1.374-1.115 1.995a31.38 31.38 0 01-1.076 1.677c-.336.477-.635.861-.852 1.123-.221.259-.361.394-.361.394s.123-.15.312-.432c.191-.278.454-.684.746-1.185.295-.5.633-1.083.973-1.724.172-.32.334-.655.506-.994.17-.34.34-.686.512-1.032l.998-2.04c.317-.653.629-1.255.89-1.774.255-.522.49-.947.645-1.25l.254-.47zM94.829 45.275s-.043.14-.134.379c-.097.236-.226.58-.417.974-.184.398-.42.852-.694 1.327-.273.476-.585.97-.918 1.452-.165.242-.343.474-.514.706-.166.234-.356.447-.526.661-.169.216-.352.409-.519.597-.164.19-.33.36-.487.513-.303.316-.582.554-.771.725-.192.17-.305.261-.305.261s.088-.117.247-.316c.165-.194.387-.481.654-.825.271-.338.574-.744.9-1.177.32-.436.663-.9.987-1.377.335-.47.649-.955.947-1.407.295-.454.566-.882.795-1.251.229-.37.422-.678.55-.898l.205-.344zM46.838 69.342s.193-.026.531-.054c.339-.026.822-.074 1.403-.096a45.384 45.384 0 014.264-.03c.775.029 1.552.089 2.276.179a31.24 31.24 0 011.97.276c.574.106 1.048.217 1.376.305.327.092.508.163.508.163s-.188-.05-.522-.103a18.666 18.666 0 00-1.387-.182 43.952 43.952 0 00-1.971-.163c-.361-.023-.734-.03-1.113-.045l-1.15-.033-2.269-.053c-.724-.015-1.4-.047-1.98-.066-.58-.014-1.065-.05-1.403-.064l-.533-.034zM50.163 67.173s.144-.02.4-.037c.254-.011.62-.037 1.057-.03.438.002.949.026 1.494.076.546.05 1.125.126 1.701.227.288.05.574.113.855.172.283.053.555.136.82.201.267.064.518.15.758.222.241.07.465.151.67.228.414.144.746.298.98.399.234.103.365.167.365.167s-.143-.03-.39-.093c-.245-.067-.599-.15-1.022-.249-.42-.105-.916-.21-1.444-.325-.53-.109-1.094-.226-1.663-.32-.566-.109-1.137-.191-1.672-.274a72.463 72.463 0 00-1.467-.198c-.431-.054-.791-.1-1.044-.124l-.398-.042zM46.838 72.378l.533-.034c.339-.015.822-.05 1.403-.064.58-.02 1.256-.051 1.98-.066l2.269-.054 1.15-.032c.38-.016.752-.023 1.113-.045a43.967 43.967 0 001.971-.163 18.613 18.613 0 001.388-.183c.333-.053.521-.103.521-.103s-.18.071-.508.164c-.328.088-.802.198-1.375.304-.573.105-1.249.194-1.971.277-.724.09-1.5.15-2.276.178a45.348 45.348 0 01-4.264-.03c-.58-.022-1.064-.07-1.403-.096-.338-.028-.531-.053-.531-.053zM50.163 74.547l.398-.042c.253-.024.613-.07 1.044-.124.43-.054.932-.121 1.467-.199.535-.082 1.106-.164 1.672-.273.569-.095 1.133-.212 1.663-.32.528-.115 1.023-.221 1.444-.326.423-.099.777-.181 1.022-.249.246-.062.39-.092.39-.092s-.131.064-.364.167c-.235.1-.567.255-.981.398a9.055 9.055 0 01-.67.228c-.24.073-.491.159-.758.222-.266.065-.537.148-.82.202-.282.058-.567.123-.855.171-.576.101-1.155.178-1.7.227-.546.05-1.057.075-1.495.076-.438.008-.803-.018-1.058-.03a5.935 5.935 0 01-.4-.036zM57.422 46.685s.155.119.414.339c.257.22.633.53 1.06.925a45.452 45.452 0 013.036 2.998c.528.57 1.034 1.162 1.483 1.738.452.57.867 1.112 1.198 1.591.33.481.588.895.758 1.19.166.297.244.475.244.475s-.098-.168-.297-.442a18.671 18.671 0 00-.852-1.112c-.366-.45-.796-.97-1.278-1.51-.24-.273-.498-.54-.756-.82l-.79-.838-1.566-1.644c-.502-.524-.958-1.025-1.355-1.45-.4-.42-.717-.788-.946-1.038l-.353-.402zM61.305 47.506s.116.088.308.257c.188.172.465.413.769.728.309.311.653.69 1.003 1.112.351.42.707.886 1.042 1.365.17.238.326.486.484.727.162.238.295.489.437.723.144.233.261.472.38.694.12.22.222.435.312.635.191.395.318.739.412.976.093.238.14.376.14.376s-.08-.123-.21-.341c-.126-.222-.318-.53-.547-.9-.224-.372-.5-.797-.792-1.252-.297-.452-.614-.935-.949-1.405-.324-.477-.67-.94-.99-1.377-.323-.434-.63-.836-.897-1.18-.267-.342-.489-.63-.65-.826l-.252-.312zM55.279 48.832l.4.354c.25.229.617.547 1.037.948.425.397.925.854 1.448 1.356l1.641 1.568.837.791c.28.258.547.517.819.757.54.483 1.059.913 1.508 1.28.447.37.834.659 1.11.854.274.198.442.296.442.296s-.178-.078-.475-.244c-.294-.17-.707-.427-1.187-.758a31.394 31.394 0 01-1.59-1.2 26.831 26.831 0 01-1.735-1.486 45.433 45.433 0 01-2.993-3.04c-.396-.428-.704-.804-.925-1.062-.22-.259-.337-.414-.337-.414zM56.098 52.72l.311.252c.196.163.483.385.826.652.342.267.744.575 1.178.899.436.32.898.666 1.375.99.469.336.95.653 1.402.951.455.293.879.569 1.25.793.37.23.678.422.899.547.218.131.341.211.341.211s-.138-.047-.376-.14c-.236-.094-.58-.22-.974-.412a9.1 9.1 0 01-.634-.313c-.222-.119-.46-.236-.693-.38-.234-.142-.485-.276-.723-.438-.24-.158-.487-.315-.726-.485a20.631 20.631 0 01-1.363-1.043c-.42-.351-.799-.696-1.11-1.005-.315-.304-.555-.581-.727-.77a5.985 5.985 0 01-.256-.309zM49.607 57.094s.19.043.517.134c.326.093.796.216 1.349.396 1.112.341 2.577.852 4.01 1.45.718.295 1.426.621 2.074.956.649.328 1.252.646 1.754.943.5.298.907.566 1.184.762.276.2.42.33.42.33s-.158-.112-.453-.278c-.293-.17-.717-.4-1.239-.652a44.008 44.008 0 00-1.792-.836c-.332-.147-.679-.282-1.03-.428-.351-.142-.71-.285-1.067-.43l-2.11-.836c-.674-.265-1.298-.529-1.835-.748-.54-.214-.982-.415-1.294-.546l-.488-.217zM53.475 56.211s.143.031.388.104c.243.078.595.18 1.003.34.41.152.88.352 1.375.588.495.235 1.012.508 1.517.803.254.145.5.305.743.457.247.148.473.32.7.474.228.151.434.32.635.47a9.1 9.1 0 01.55.447c.338.278.597.537.781.713.184.178.285.283.285.283s-.125-.078-.335-.222c-.206-.148-.51-.348-.872-.587-.359-.245-.786-.515-1.242-.806-.46-.286-.949-.591-1.45-.877-.493-.298-1-.573-1.474-.836a72.173 72.173 0 00-1.308-.695c-.386-.2-.707-.368-.937-.478l-.359-.178zM48.557 59.943l.512.153c.323.103.79.237 1.338.426.551.182 1.197.387 1.882.624l2.146.736 1.09.368c.362.117.714.24 1.06.344.694.212 1.344.385 1.906.53.56.148 1.032.248 1.364.31.332.065.526.084.526.084s-.195.003-.534-.023a18.41 18.41 0 01-1.395-.191c-.574-.1-1.238-.251-1.945-.424-.71-.166-1.46-.379-2.197-.62a45.346 45.346 0 01-3.99-1.507c-.537-.222-.974-.434-1.283-.576-.307-.143-.48-.234-.48-.234zM50.927 63.13l.388.098c.246.066.6.147 1.022.246.423.1.916.21 1.446.322.53.108 1.094.229 1.663.324.566.108 1.136.193 1.67.275.536.075 1.037.148 1.468.195.43.054.791.1 1.044.12.253.028.398.049.398.049s-.145.015-.4.03c-.254.014-.619.043-1.057.035-.219.001-.456-.001-.707-.019-.25-.015-.516-.02-.788-.054-.272-.031-.555-.047-.839-.095-.284-.043-.574-.081-.861-.136a20.567 20.567 0 01-1.675-.376 17.27 17.27 0 01-1.428-.447c-.413-.144-.747-.295-.982-.394-.233-.104-.362-.173-.362-.173zM68.24 40.072s.104.165.27.46c.166.298.412.717.675 1.237a45.532 45.532 0 011.813 3.864c.298.717.569 1.45.79 2.145.228.692.43 1.343.575 1.908.144.566.242 1.043.3 1.378.053.337.065.531.065.531s-.034-.191-.126-.518c-.087-.327-.224-.79-.415-1.338a44.18 44.18 0 00-.677-1.86c-.131-.338-.281-.68-.426-1.031l-.452-1.06-.9-2.085c-.29-.665-.545-1.294-.77-1.83-.23-.533-.401-.988-.53-1.302l-.192-.499zM71.599 42.187s.079.123.2.348c.117.227.294.549.47.95.182.399.374.874.557 1.39.184.517.357 1.077.506 1.642.076.283.138.57.202.85.07.28.109.561.161.83.054.27.081.534.116.783.037.248.058.485.074.704.043.437.043.803.05 1.059.003.255 0 .401 0 .401s-.033-.143-.08-.394c-.04-.25-.114-.607-.202-1.033-.08-.427-.192-.92-.31-1.45-.122-.527-.252-1.09-.404-1.646-.14-.56-.304-1.114-.453-1.635a72.456 72.456 0 00-.434-1.417c-.132-.415-.24-.762-.325-1.002l-.128-.38zM65.487 41.343l.254.47c.155.303.39.728.645 1.25.26.52.573 1.121.89 1.774l.998 2.04.511 1.032c.173.339.335.675.507.994.34.64.678 1.224.973 1.724.291.501.554.907.746 1.185.189.282.312.432.312.432s-.14-.135-.361-.394a18.405 18.405 0 01-.852-1.123 31.297 31.297 0 01-1.076-1.677 26.827 26.827 0 01-1.115-1.995 45.508 45.508 0 01-1.758-3.89c-.223-.538-.382-.998-.5-1.316-.117-.32-.174-.506-.174-.506zM64.912 45.275l.205.344c.127.22.32.528.55.898.228.37.5.797.794 1.251.299.452.612.937.947 1.407.324.477.667.941.988 1.377.325.433.628.839.9 1.178.266.343.489.63.653.824.16.199.247.316.247.316s-.113-.092-.304-.26c-.19-.172-.468-.41-.772-.726a9.105 9.105 0 01-.487-.513c-.166-.188-.35-.38-.519-.597-.17-.214-.36-.427-.526-.661-.171-.232-.349-.464-.514-.706a20.652 20.652 0 01-.918-1.452c-.273-.475-.51-.93-.694-1.327-.19-.395-.32-.738-.416-.974a6.045 6.045 0 01-.134-.38zM78.489 103.653s-.026-.193-.054-.532c-.026-.339-.073-.823-.095-1.404a45.634 45.634 0 01-.03-4.27 26.83 26.83 0 01.178-2.28c.083-.723.172-1.4.276-1.974a18.48 18.48 0 01.304-1.377c.092-.328.163-.509.163-.509s-.049.188-.103.523c-.057.333-.127.812-.182 1.39a44.1 44.1 0 00-.163 1.973c-.022.362-.029.735-.044 1.115l-.033 1.152-.053 2.271c-.016.725-.047 1.403-.066 1.984-.014.581-.05 1.065-.064 1.405l-.034.533zM76.323 100.324s-.02-.145-.037-.4c-.01-.255-.037-.621-.03-1.06.002-.438.027-.95.076-1.496.05-.546.126-1.127.227-1.703.049-.289.113-.575.172-.857.053-.283.136-.555.2-.821.064-.267.15-.519.223-.76.07-.24.15-.464.227-.67.144-.414.297-.747.398-.982.103-.234.167-.365.167-.365s-.03.144-.092.391c-.068.246-.15.6-.25 1.023-.104.422-.21.917-.324 1.446-.109.53-.226 1.096-.32 1.666-.108.567-.19 1.138-.273 1.674a73.275 73.275 0 00-.198 1.47c-.053.431-.1.792-.124 1.045l-.042.399zM81.52 103.653s-.011-.194-.033-.533c-.015-.34-.05-.824-.064-1.405-.02-.581-.05-1.259-.066-1.984l-.053-2.271-.033-1.152c-.016-.38-.022-.753-.045-1.115a44.113 44.113 0 00-.163-1.974 18.75 18.75 0 00-.182-1.39c-.053-.334-.103-.522-.103-.522s.071.181.164.51c.087.328.198.802.304 1.377.104.573.193 1.25.276 1.973.09.725.15 1.503.178 2.28a45.563 45.563 0 01-.03 4.27c-.022.581-.07 1.065-.096 1.404-.028.339-.053.532-.053.532zM83.687 100.324l-.042-.399c-.024-.253-.07-.614-.124-1.045-.054-.432-.121-.934-.199-1.47-.082-.535-.164-1.107-.272-1.674-.095-.57-.212-1.135-.32-1.666-.115-.528-.22-1.024-.325-1.446-.099-.423-.181-.777-.25-1.022-.061-.248-.091-.391-.091-.391s.064.13.167.365c.1.234.254.567.398.981.077.206.157.43.227.671.073.24.159.492.222.76.065.265.148.537.2.82.06.282.124.568.172.857.101.576.178 1.157.227 1.703.05.546.074 1.058.076 1.497.008.438-.019.804-.03 1.059-.016.255-.036.4-.036.4zM102.318 94.95s-.154-.118-.413-.338c-.258-.22-.633-.53-1.06-.925a45.571 45.571 0 01-3.036-2.998 26.82 26.82 0 01-1.483-1.738 31.43 31.43 0 01-1.199-1.591 18.41 18.41 0 01-.757-1.19 6.084 6.084 0 01-.244-.475s.098.168.296.443c.195.276.484.664.853 1.111.366.45.795.97 1.278 1.511.24.272.498.54.755.82l.79.838 1.567 1.643c.501.524.957 1.025 1.354 1.45.4.42.718.788.946 1.039l.353.4zM98.436 94.13s-.117-.088-.309-.257c-.187-.172-.464-.412-.768-.728a17.36 17.36 0 01-1.003-1.111c-.351-.421-.707-.886-1.042-1.366-.17-.238-.326-.486-.484-.726-.162-.238-.296-.49-.438-.724-.144-.233-.26-.472-.379-.694a9.056 9.056 0 01-.313-.635c-.19-.394-.317-.739-.412-.976-.092-.238-.14-.376-.14-.376s.081.123.212.342c.125.221.317.53.546.9.224.371.499.796.792 1.252.297.452.614.934.949 1.404.324.478.67.94.99 1.377.323.434.63.837.897 1.18.267.342.488.63.65.827l.252.311zM104.462 92.804l-.401-.353c-.25-.23-.617-.547-1.037-.948-.424-.397-.924-.854-1.447-1.356l-1.642-1.569-.836-.791c-.28-.258-.548-.517-.819-.757a44.02 44.02 0 00-1.509-1.28c-.446-.37-.833-.659-1.11-.854a6.126 6.126 0 00-.441-.296s.178.078.475.244c.294.17.707.428 1.187.759.479.331 1.02.747 1.589 1.2.575.449 1.167.956 1.735 1.485a45.43 45.43 0 012.994 3.041c.395.427.703.803.924 1.06.22.26.338.415.338.415zM103.643 88.916l-.312-.252c-.195-.163-.483-.384-.825-.652a77.418 77.418 0 00-1.178-.898c-.437-.32-.898-.667-1.375-.991-.47-.336-.951-.653-1.403-.95-.454-.294-.879-.57-1.25-.793-.37-.23-.677-.422-.899-.548a11.66 11.66 0 01-.34-.21s.137.047.375.139c.237.094.58.221.974.413.2.09.415.192.635.313.22.119.46.235.693.38.234.142.484.275.722.438.24.158.488.314.726.484.478.336.942.692 1.363 1.044.421.35.799.695 1.11 1.004.315.305.555.582.727.77.169.192.257.31.257.31zM110.134 84.542s-.19-.043-.517-.134c-.327-.093-.797-.215-1.349-.396a45.276 45.276 0 01-4.011-1.45 26.718 26.718 0 01-2.074-.956 31.516 31.516 0 01-1.753-.942 18.38 18.38 0 01-1.185-.763c-.275-.2-.42-.33-.42-.33s.159.112.453.278c.293.17.717.4 1.239.652.521.255 1.128.547 1.793.836.331.147.678.282 1.029.428l1.068.43 2.109.836c.674.265 1.298.529 1.836.748.539.214.981.415 1.294.547a345 345 0 00.488.216zM106.265 85.425s-.143-.031-.388-.104c-.242-.078-.594-.18-1.002-.339a17.37 17.37 0 01-1.376-.589 20.496 20.496 0 01-1.517-.802c-.254-.146-.499-.305-.743-.458-.247-.148-.473-.32-.7-.473-.228-.152-.434-.32-.634-.471a9.031 9.031 0 01-.55-.446c-.338-.278-.597-.538-.782-.714-.183-.177-.284-.283-.284-.283s.124.078.334.222c.207.149.51.349.873.588.358.244.786.515 1.242.805.459.286.948.592 1.449.878.494.298 1.001.573 1.474.835.476.259.923.496 1.309.695.385.2.707.368.936.479l.359.177zM111.183 81.694l-.511-.153c-.323-.104-.79-.238-1.339-.426-.551-.183-1.196-.388-1.881-.625l-2.147-.736-1.09-.368c-.361-.117-.713-.24-1.06-.344a43.984 43.984 0 00-1.905-.53 18.568 18.568 0 00-1.365-.31c-.332-.065-.525-.084-.525-.084s.194-.003.533.023c.339.031.821.092 1.396.191.573.1 1.238.252 1.944.424.71.166 1.46.38 2.197.62a45.397 45.397 0 013.99 1.507c.538.222.975.434 1.283.576.308.144.48.234.48.234zM108.814 78.506l-.388-.098c-.246-.066-.6-.147-1.023-.246-.423-.099-.916-.21-1.445-.322-.531-.108-1.095-.229-1.663-.323-.567-.108-1.137-.194-1.671-.275-.536-.076-1.036-.148-1.467-.196-.431-.054-.792-.099-1.045-.12-.253-.027-.398-.049-.398-.049s.145-.014.4-.03c.254-.014.619-.043 1.057-.034.219-.002.457 0 .707.018.251.015.516.021.788.054.272.031.555.048.839.096.285.042.575.08.862.135a20.64 20.64 0 011.674.376c.529.142 1.017.296 1.428.447.413.144.747.296.982.394.234.104.363.173.363.173zM91.5 101.564s-.104-.165-.27-.461c-.166-.296-.412-.716-.675-1.235a45.47 45.47 0 01-1.813-3.865 26.868 26.868 0 01-.79-2.145 31.389 31.389 0 01-.575-1.908 18.446 18.446 0 01-.3-1.378c-.053-.337-.064-.53-.064-.53s.033.19.124.517c.088.327.225.79.416 1.338.188.55.412 1.185.677 1.86.131.339.281.68.426 1.032l.452 1.06.901 2.085c.29.665.544 1.293.77 1.829.23.533.4.988.529 1.303l.192.498zM88.141 99.45s-.079-.124-.2-.349c-.117-.227-.294-.548-.47-.95a17.352 17.352 0 01-.557-1.39 20.599 20.599 0 01-.506-1.642c-.076-.283-.138-.569-.202-.85-.07-.28-.109-.561-.161-.83-.054-.269-.081-.533-.116-.782a9.126 9.126 0 01-.074-.705c-.043-.436-.043-.803-.049-1.058-.004-.256 0-.402 0-.402s.032.143.079.394c.04.251.114.607.202 1.033.08.427.192.921.31 1.45.122.527.252 1.09.404 1.646.14.56.304 1.114.453 1.635a72.2 72.2 0 00.434 1.418c.132.414.24.761.325 1.001l.128.38zM94.254 100.293l-.254-.47c-.156-.302-.39-.728-.646-1.25-.26-.519-.572-1.121-.889-1.773l-.998-2.04-.511-1.033c-.173-.339-.335-.675-.507-.994-.34-.64-.678-1.224-.973-1.724a18.752 18.752 0 00-.746-1.185c-.189-.281-.312-.431-.312-.431s.14.134.361.393c.217.262.516.646.852 1.123.334.477.698 1.055 1.076 1.677.384.62.764 1.302 1.115 1.995a45.553 45.553 0 011.757 3.89c.224.538.383.998.5 1.316.117.32.175.506.175.506zM94.829 96.361l-.205-.344c-.127-.22-.32-.528-.55-.898-.228-.37-.5-.797-.794-1.251-.299-.452-.612-.937-.948-1.406-.324-.478-.666-.942-.987-1.378-.325-.433-.628-.838-.9-1.177-.266-.343-.489-.63-.653-.825-.16-.198-.247-.316-.247-.316s.113.092.304.261c.19.17.468.409.772.725.156.154.322.324.487.514.166.188.35.38.519.596.17.215.359.427.526.662.17.231.348.464.513.705.333.481.646.976.919 1.452.273.475.51.93.694 1.327.19.395.32.738.416.974.092.24.134.38.134.38zM58.26 95.408l.352-.4c.23-.251.546-.619.947-1.04.396-.424.853-.925 1.354-1.449l1.566-1.644.79-.838c.258-.28.516-.548.756-.82.482-.541.912-1.06 1.278-1.51.369-.447.658-.835.853-1.112.198-.274.296-.442.296-.442s-.078.178-.244.475c-.17.295-.427.709-.758 1.19-.33.48-.746 1.02-1.198 1.59a26.846 26.846 0 01-1.483 1.739 45.428 45.428 0 01-3.037 2.997c-.426.396-.801.705-1.06.926-.258.22-.413.338-.413.338zM62.142 94.588l.252-.311c.162-.197.383-.485.65-.828.267-.343.574-.745.898-1.18.32-.436.665-.899.99-1.376.334-.47.65-.953.948-1.405.293-.455.568-.88.792-1.252.229-.37.42-.678.546-.9.13-.218.211-.341.211-.341s-.047.138-.14.376c-.094.237-.22.581-.412.976-.09.2-.191.415-.312.635-.119.222-.236.46-.38.694-.142.234-.275.486-.437.723-.158.241-.314.489-.484.727-.335.48-.69.944-1.042 1.365-.35.422-.694.8-1.003 1.112-.304.316-.58.556-.769.728-.192.17-.308.257-.308.257zM56.116 93.262s.118-.155.338-.415c.22-.257.529-.634.924-1.06a45.457 45.457 0 012.993-3.041 26.804 26.804 0 011.736-1.486 31.5 31.5 0 011.589-1.2c.48-.33.893-.588 1.187-.758.297-.167.475-.245.475-.245s-.168.099-.442.297c-.276.195-.663.484-1.11.854-.449.367-.967.797-1.508 1.28-.272.24-.54.499-.819.757l-.837.79-1.641 1.57c-.523.501-1.023.958-1.447 1.355-.42.401-.788.719-1.038.948l-.4.354zM56.935 89.374s.088-.117.256-.31c.173-.188.412-.465.727-.77.311-.309.69-.653 1.11-1.004.42-.351.885-.707 1.364-1.044.238-.17.485-.326.725-.484.238-.162.489-.296.723-.438.233-.144.471-.261.692-.38.22-.12.435-.222.635-.313.394-.191.737-.318.974-.412.238-.093.376-.14.376-.14s-.123.08-.341.21c-.221.126-.53.319-.898.548-.372.224-.796.5-1.25.793-.452.298-.934.614-1.403.95-.477.325-.939.67-1.375.991-.434.324-.836.632-1.178.899-.343.267-.63.489-.826.651l-.311.253zM50.079 85.085s.177-.08.488-.217c.313-.131.754-.332 1.294-.546.538-.22 1.161-.484 1.836-.749l2.11-.836 1.067-.43c.35-.145.698-.28 1.029-.427a44.07 44.07 0 001.792-.836 18.65 18.65 0 001.24-.652c.294-.166.453-.278.453-.278s-.145.13-.42.33c-.278.196-.684.464-1.185.762-.502.297-1.105.614-1.754.943a26.83 26.83 0 01-2.073.956 45.41 45.41 0 01-4.011 1.45c-.553.18-1.023.303-1.35.396-.326.09-.516.134-.516.134zM53.947 85.968l.36-.178c.229-.11.55-.279.936-.478.386-.2.833-.437 1.308-.695.474-.263.98-.538 1.475-.836.5-.286.99-.591 1.449-.877.456-.29.884-.561 1.242-.806.363-.239.666-.439.873-.588.21-.143.334-.221.334-.221s-.1.105-.284.283c-.185.176-.444.435-.783.713a9.066 9.066 0 01-.55.446c-.2.151-.405.32-.633.471-.227.153-.454.326-.7.474-.244.152-.49.311-.743.457-.506.294-1.023.568-1.518.803-.494.235-.965.435-1.375.589-.408.159-.76.26-1.003.339-.245.072-.388.103-.388.103zM49.03 82.236s.172-.091.48-.234c.308-.142.745-.354 1.282-.576a45.37 45.37 0 013.99-1.507 26.793 26.793 0 012.197-.62 31.338 31.338 0 011.945-.424c.575-.1 1.057-.16 1.395-.192.34-.026.534-.022.534-.022s-.193.019-.525.084c-.333.061-.805.162-1.365.31a44.16 44.16 0 00-1.906.53c-.346.104-.698.227-1.06.344l-1.09.367-2.146.736c-.685.237-1.33.442-1.882.625-.549.188-1.015.323-1.338.426l-.511.153zM51.399 79.049s.129-.07.362-.174c.235-.098.569-.25.982-.394.412-.15.9-.304 1.428-.447.53-.143 1.1-.271 1.675-.376.287-.054.577-.093.861-.135.284-.048.568-.064.84-.095.271-.034.537-.04.787-.055.25-.017.488-.02.707-.018.438-.008.803.02 1.058.034.255.016.4.03.4.03s-.146.022-.399.05c-.253.02-.613.066-1.044.12-.431.047-.932.12-1.467.195-.535.081-1.105.167-1.671.275-.569.095-1.133.216-1.663.323-.53.113-1.023.224-1.446.323-.422.099-.776.18-1.022.245l-.388.099zM69.012 101.915l.193-.498c.128-.315.299-.77.529-1.303.225-.536.48-1.164.77-1.83l.9-2.084.453-1.06c.144-.352.294-.693.425-1.031.266-.676.49-1.312.677-1.86.192-.548.329-1.012.416-1.34.091-.325.125-.517.125-.517s-.012.194-.065.531c-.058.335-.155.812-.3 1.378a31.366 31.366 0 01-.574 1.908 26.867 26.867 0 01-.79 2.145 45.62 45.62 0 01-1.814 3.865c-.263.519-.508.938-.674 1.235-.167.296-.27.461-.27.461zM72.371 99.8l.129-.38c.084-.24.192-.587.324-1.001.132-.414.28-.898.435-1.418.149-.52.313-1.074.452-1.635.152-.556.282-1.119.405-1.646.118-.529.229-1.023.31-1.45.087-.426.16-.782.202-1.033.047-.25.08-.394.08-.394s.003.146-.001.402c-.007.255-.007.622-.05 1.058a9.228 9.228 0 01-.073.705c-.035.248-.062.513-.116.782-.053.269-.091.55-.161.83-.065.28-.126.567-.203.85-.149.566-.322 1.125-.505 1.642-.184.517-.375.991-.557 1.39-.177.402-.353.723-.47.95-.122.225-.2.348-.2.348zM66.26 100.644s.057-.186.173-.506c.118-.318.277-.778.5-1.315a45.493 45.493 0 011.758-3.89c.351-.694.73-1.375 1.115-1.996.378-.622.742-1.2 1.076-1.677.336-.477.635-.86.852-1.123.221-.259.361-.394.361-.394s-.123.15-.312.432a18.77 18.77 0 00-.746 1.185c-.295.5-.633 1.084-.973 1.724-.172.32-.334.655-.506.994-.17.34-.34.686-.512 1.032l-.998 2.04c-.317.653-.629 1.255-.89 1.774-.255.522-.49.948-.645 1.249l-.254.471zM65.684 96.712s.042-.14.134-.379c.097-.236.226-.58.416-.974.185-.398.421-.852.695-1.327.272-.476.585-.97.918-1.452.165-.241.342-.474.514-.706.166-.234.355-.447.526-.661.168-.216.352-.408.519-.596.164-.19.33-.36.487-.514.303-.316.582-.554.771-.725.192-.17.305-.261.305-.261s-.088.117-.248.316c-.164.194-.387.482-.653.825-.272.339-.575.744-.9 1.177-.32.436-.663.9-.987 1.378-.335.47-.649.954-.948 1.406-.294.454-.565.882-.794 1.251-.23.37-.422.678-.55.898l-.205.344z" fill="#C35D1A"/><path d="M98.465 67.168c-.025-.125-.053-.248-.08-.372a18.765 18.765 0 00-2.747-6.438l-.043-.064a18.945 18.945 0 00-4.884-4.938c-.1-.07-.2-.138-.3-.206a18.704 18.704 0 00-6.535-2.743c-.22-.046-.442-.085-.665-.123a18.896 18.896 0 00-3.211-.28c-1.262 0-2.495.128-3.687.365-.135.026-.269.057-.403.087a18.709 18.709 0 00-7.045 3.202 18.94 18.94 0 00-4.62 4.882l-.118.185a18.756 18.756 0 00-2.557 6.266l-.035.177a18.965 18.965 0 00-.363 3.692 18.981 18.981 0 00.45 4.096 18.764 18.764 0 003.12 6.945 18.941 18.941 0 004.703 4.574c.212.144.429.282.647.417a18.691 18.691 0 005.83 2.374c.13.029.26.059.39.085a18.88 18.88 0 003.688.364c1.095 0 2.167-.1 3.21-.279.238-.04.475-.083.709-.133a18.702 18.702 0 006.417-2.686c.048-.032.097-.06.144-.092a18.942 18.942 0 004.85-4.725c.099-.14.2-.276.295-.418a18.767 18.767 0 002.924-7.306c.18-1.046.279-2.12.279-3.216 0-1.264-.127-2.498-.364-3.692z" fill="#763713"/><path d="M70.693 64.547h-1.785l.807 1.342.085.141.086-.141.807-1.341zM92.119 73.445l-.893-1.483-.892 1.483h1.785zM91.165 71.86l.061.102.062-.103.831-1.38h-1.785l.83 1.38zM89.44 70.479h.894l-.893-1.483-.893 1.483h.893zM92.119 67.513l-.893-1.483-.892 1.483h1.785z" fill="#1C0C07"/><path d="M90.334 67.513h-1.786l.893 1.483.893-1.483zM91.141 65.889l.085.141.086-.141.807-1.341h-1.785l.807 1.34zM88.548 79.376l-.893-1.483-.892 1.483h1.785zM84.977 79.376l.893 1.483.893-1.483h-1.786zM88.548 73.445l.893 1.482.893-1.482h-1.786zM89.44 76.41h.894l-.893-1.483-.893 1.483h.893zM71.586 61.582h-.892l.892 1.483.893-1.483h-.893zM73.371 60.099l.11-.181.783-1.302H72.48l.783 1.302.11.18zM72.479 64.547l-.893-1.482-.892 1.483H72.478zM90.334 64.547l-.893-1.482-.893 1.483h1.786zM88.548 61.582l-.893-1.483-.892 1.483h1.785zM79.62 58.616l-.892-1.483-.893 1.483h1.786zM82.299 58.616h.893l-.893-1.483-.893 1.483h.893zM76.05 64.547l-.893-1.482-.893 1.483h1.786zM82.299 82.342h.893l-.893-1.483-.893 1.483h.893zM76.05 70.479l-.893-1.483-.893 1.483h1.786z" fill="#1C0C07"/><path d="M75.157 67.513h-.893l.893 1.483.893-1.483h-.893zM74.264 64.547H72.48l.807 1.342.085.141.086-.141.807-1.341zM88.548 67.513l-.893-1.483-.892 1.483h1.785zM84.084 60.099l-.892 1.483h1.785l-.893-1.483zM81.406 58.616h-1.785l.783 1.302.11.18.109-.18.783-1.302zM76.943 60.099l-.893 1.483h1.786l-.893-1.483zM85.87 64.547h.893l-.893-1.482-.893 1.483h.893zM72.479 67.513h1.785l-.893-1.483-.892 1.483zM74.264 79.376l.893 1.483.893-1.483h-1.786zM72.479 79.376h1.785l-.893-1.483-.892 1.483zM74.264 76.41H72.48l.855 1.42.037.063.038-.063.855-1.42zM78.728 79.376h-.893l.893 1.483.893-1.483h-.893zM86.763 67.513h-1.786l.893 1.483.893-1.483zM76.05 79.376h1.786l-.893-1.483-.893 1.483zM72.479 73.445h1.785l-.893-1.483-.892 1.483zM74.264 70.479H72.48l.83 1.38.062.103.062-.103.831-1.38zM75.157 73.445h-.893l.893 1.482.893-1.482h-.893zM74.264 76.41h1.786l-.893-1.483-.893 1.483zM86.763 58.616l-.893-1.483-.893 1.483h1.786zM91.226 60.099l.11-.181.783-1.302h-1.785l.783 1.302.11.18zM76.943 54.168l-.893 1.482h1.786l-.893-1.482zM80.513 54.168l.133-.221.76-1.262h-1.785l.76 1.262.132.22zM84.977 55.65l-.893-1.482-.892 1.482h1.785zM93.012 64.547h.893l-.893-1.482-.893 1.483h.893zM93.012 70.479h.893l-.893-1.483-.893 1.483h.893z" fill="#1C0C07"/><path d="M93.905 67.513h-1.786l.893 1.483.893-1.483zM68.907 70.479l-.892-1.483-.893 1.483H68.907zM67.122 64.547h-1.785l.807 1.342.085.141.085-.141.808-1.341zM65.337 67.513h1.785l-.893-1.483-.892 1.483zM94.736 71.86l.061.102.062-.103.831-1.38h-1.785l.83 1.38z" fill="#1C0C07"/><path d="M68.015 67.513h-.893l.893 1.483.892-1.483h-.892zM70.693 58.616h-1.785l.783 1.302.11.18.108-.18.784-1.302zM72.479 58.616l-.893-1.483-.892 1.483H72.478zM68.907 64.547l-.892-1.482-.893 1.483H68.907zM68.015 61.582h-.893l.893 1.483.892-1.483h-.892zM76.05 58.616l-.893-1.483-.893 1.483h1.786zM71.586 79.376h-.892l.892 1.483.893-1.483h-.893zM71.586 73.445h-.892l.892 1.482.893-1.482h-.893zM70.694 76.41H72.478l-.893-1.483-.892 1.483zM69.763 77.83l.037.063.038-.063.855-1.42h-1.785l.855 1.42zM68.908 79.376h1.785l-.893-1.483-.892 1.483zM71.586 67.513h-.892l.892 1.483.893-1.483h-.893zM68.908 73.445h1.785l-.893-1.483-.892 1.483zM95.69 73.445l-.893-1.483-.892 1.483h1.785zM70.693 70.479h-1.785l.83 1.38.062.103.062-.103.831-1.38zM68.908 67.513h1.785L69.8 66.03l-.892 1.483z" fill="#1C0C07"/><path d="M72.479 70.479l-.893-1.483-.892 1.483H72.478zM92.119 79.376l-.893-1.483-.892 1.483h1.785zM74.264 82.342h1.786l-.893-1.483-.893 1.483zM93.012 76.41h.893l-.893-1.483-.893 1.483h.893zM88.548 79.376l.893 1.483.893-1.483h-1.786zM92.12 73.445l.892 1.482.893-1.482h-1.786zM77.836 82.342H76.05l.879 1.46.014.022.014-.023.879-1.46z" fill="#1C0C07"/><path d="M89.44 82.342h.894l-.893-1.483-.893 1.483h.893zM80.5 83.801l.013.023.014-.023.88-1.46H79.62l.879 1.46zM84.07 83.801l.014.023.014-.023.88-1.46h-1.786l.878 1.46z" fill="#1C0C07"/><path d="M87.641 83.801l.014.023.014-.023.88-1.46h-1.786l.878 1.46zM94.712 65.889l.085.141.086-.141.807-1.341h-1.785l.807 1.34zM87.655 60.099l.11-.181.783-1.302h-1.785l.783 1.302.11.18zM91.226 60.099l-.892 1.483h1.785l-.893-1.483zM83.192 55.65h-1.786l.893 1.483.893-1.483zM90.334 61.582h-1.786l.893 1.483.893-1.483zM80.513 54.168l-.892 1.482h1.785l-.893-1.482zM87.617 77.83l.038.063.038-.063.855-1.42h-1.785l.854 1.42zM70.694 82.342H72.478l-.893-1.483-.892 1.483zM78.728 55.65h-.893l.893 1.483.893-1.483h-.893zM69.8 60.099l-.892 1.483h1.785l-.893-1.483zM86.763 61.582h-1.786l.893 1.483.893-1.483zM84.084 60.099l.11-.181.783-1.302h-1.785l.783 1.302.11.18zM76.943 60.099l.109-.181.784-1.302H76.05l.784 1.302.109.18zM84.977 82.342h1.786l-.893-1.483-.893 1.483zM91.189 77.83l.037.063.038-.063.855-1.42h-1.785l.855 1.42zM77.835 82.342h1.786l-.893-1.483-.893 1.483zM73.371 60.099l-.892 1.483h1.785l-.893-1.483zM76.05 61.582h-1.786l.893 1.483.893-1.483zM97.476 67.513H95.69l.893 1.483.893-1.483zM94.797 60.099l.11-.181.181-.303a18.86 18.86 0 00-.789-.999h-.394l.783 1.302.11.18zM64.444 61.582h-.83l-.03.055.86 1.428.893-1.483h-.893zM74.264 88.273h1.786l-.893-1.483-.893 1.483zM61.766 73.445h1.785l-.892-1.483-.893 1.483zM61.766 67.513h1.785l-.892-1.483-.893 1.483zM90.334 55.65h-1.786l.893 1.483.893-1.483zM93.905 61.582h-1.786l.893 1.483.893-1.483zM86.763 55.65h-1.786l.893 1.483.893-1.483zM95.69 67.513l-.893-1.483-.892 1.483h1.785zM94.76 77.83l.037.063.038-.063.855-1.42h-1.785l.855 1.42zM76.05 55.65h-1.786l.893 1.483.893-1.483zM78.728 67.513h-.893l.893 1.483.893-1.483h-.893zM79.62 70.479l-.892-1.483-.893 1.483h1.786zM76.05 67.513h1.786l-.893-1.483-.893 1.483zM76.05 73.445h1.786l-.893-1.483-.893 1.483zM77.835 73.445l.893 1.482.893-1.482h-1.786zM77.836 70.479H76.05l.831 1.38.062.103.061-.103.832-1.38zM83.192 64.547l-.893-1.482-.893 1.483h1.786zM76.943 66.03l.085-.141.808-1.341H76.05l.808 1.34.085.142zM79.62 64.547l-.892-1.482-.893 1.483h1.786zM88.548 73.445l-.893-1.483-.892 1.483h1.785zM84.977 73.445l.893 1.482.893-1.482h-1.786z" fill="#1C0C07"/><path d="M87.594 71.86l.061.102.062-.103.831-1.38h-1.785l.83 1.38zM85.87 70.479h.893l-.893-1.483-.893 1.483h.893zM85.87 76.41h.893l-.893-1.483-.893 1.483h.893zM84.977 67.513l-.893-1.483-.892 1.483h1.785zM77.835 76.41h1.786l-.893-1.483-.893 1.483zM81.406 79.376l-.893-1.483-.892 1.483h1.785zM81.406 79.376l.893 1.483.893-1.483h-1.786zM83.192 79.376h1.785l-.893-1.483-.892 1.483zM84.047 77.83l.037.063.038-.063.855-1.42h-1.785l.855 1.42zM87.655 66.03l.086-.141.807-1.341h-1.785l.807 1.34.085.142zM80.476 77.83l.037.063.038-.063.855-1.42h-1.785l.855 1.42zM79.62 61.582H77.836l.893 1.483.893-1.483zM76.905 77.83l.038.063.038-.063.855-1.42H76.05l.855 1.42zM80.513 60.099l-.892 1.483h1.785l-.893-1.483zM83.192 61.582h-1.786l.893 1.483.893-1.483zM81.406 76.41h1.786l-.893-1.483-.893 1.483zM84.084 66.03l.086-.141.807-1.341h-1.785l.807 1.34.085.142zM80.513 66.03l.086-.141.807-1.341h-1.785l.807 1.34.085.142zM83.192 67.513h-1.786l.893 1.483.893-1.483zM82.299 70.479h.893l-.893-1.483-.893 1.483h.893zM80.513 66.03l-.892 1.483h1.785l-.893-1.483zM79.62 73.445h1.786l-.893-1.483-.892 1.483z" fill="#1C0C07"/><path d="M80.452 71.86l.061.102.062-.103.831-1.38h-1.785l.83 1.38zM84.977 73.445l-.893-1.483-.892 1.483h1.785zM81.406 73.445l.893 1.482.893-1.482h-1.786z" fill="#1C0C07"/><path d="M84.023 71.86l.061.102.062-.103.831-1.38h-1.785l.83 1.38zM96.583 79.79c.073-.137.142-.276.213-.414H95.69l.581.965c.106-.182.212-.365.312-.551zM87.655 54.168l-.892 1.482h1.785l-.893-1.482zM89.44 58.616h.894l-.893-1.483-.893 1.483h.893zM95.69 61.582l-.893-1.483-.892 1.483h1.785zM96.583 64.547h.893l-.893-1.482-.893 1.483h.893zM96.583 70.479h.893l-.893-1.483-.893 1.483h.893zM90.71 55.356l-.14-.097-.236.392h.762c-.13-.096-.252-.203-.385-.295zM77.836 52.685H76.05l.76 1.262.133.22.133-.22.76-1.262zM72.479 55.65H70.694l.892 1.483.893-1.483zM84.084 54.168l.133-.221.76-1.262h-1.785l.76 1.262.132.22zM68.907 58.616l-.892-1.483-.893 1.483H68.907zM73.371 54.168l-.892 1.482h1.785l-.893-1.482zM93.905 58.616l-.724-1.201c-.055-.054-.114-.103-.17-.156-.015-.016-.032-.03-.048-.045l-.844 1.402h1.786zM92.12 79.376l.892 1.483.893-1.483h-1.786zM75.91 52.456c-.253.056-.504.12-.753.186l-.161.043h1.054l-.138-.23-.002.001zM91.212 83.801l.014.023.014-.023.879-1.46h-1.785l.878 1.46z" fill="#1C0C07"/><path d="M93.012 82.342h.893l-.893-1.483-.893 1.483h.893zM87.907 53.75a18.624 18.624 0 00-.686-.304l.302.501.133.22.132-.22.119-.197zM88.548 85.307l.893 1.483.893-1.483h-1.786zM74.1 52.956c-.403.134-.8.282-1.192.442l.33.549.134.22.132-.22.597-.99zM79.62 52.685l-.397-.66c-.166.006-.33.017-.495.028-.18.012-.359.023-.537.04l-.356.592h1.786zM84.982 52.678l-.005.007h.028l-.023-.007zM95.69 73.445l.893 1.482.893-1.482H95.69zM96.583 76.41h.893l-.893-1.483-.893 1.483h.893zM95.69 79.376l-.893-1.483-.892 1.483h1.785zM83.192 52.685l-.268-.445a19.704 19.704 0 00-1.16-.148l-.358.593h1.786zM70.694 85.307l.892 1.483.893-1.483H70.694zM77.835 88.273h1.786l-.893-1.483-.893 1.483zM75.157 85.307h-.893l.893 1.483.893-1.483h-.893zM72.479 85.307h1.785l-.893-1.483-.892 1.483zM67.122 82.342H68.907l-.892-1.483-.893 1.483zM68.908 85.307h1.785l-.893-1.483-.892 1.483zM70.17 54.782c-.204.125-.407.252-.606.385-.214.143-.425.292-.633.445l-.023.038h1.785l-.523-.868zM94.906 82.342h-1.001l.435.723c.198-.233.38-.48.566-.723zM92.077 85.307l.028-.024-.879-1.459-.892 1.483h1.743zM87.221 88.273h-.458l.087.146c.124-.049.249-.095.371-.146zM89.441 87.168c.056-.033.114-.063.17-.096l-.17-.282-.345.573c.116-.064.231-.129.345-.195zM97.992 76.41h-.516l.334.556c.063-.184.124-.37.182-.556zM85.87 88.273h.893l-.893-1.483-.893 1.483h.893zM81.406 88.273h1.786l-.893-1.483-.893 1.483zM98.464 67.168c-.024-.125-.052-.248-.08-.372-.041-.19-.09-.376-.137-.564l-.772 1.281h1.05c-.021-.115-.038-.231-.06-.345zM64.444 67.513h-.893l.893 1.483.893-1.483h-.893z" fill="#1C0C07"/><path d="M65.337 70.479l-.893-1.483-.893 1.483h1.786zM66.23 60.099l-.894 1.483h1.786l-.893-1.483zM65.337 64.547l-.893-1.482-.893 1.483h1.786zM96.897 62.543c-.101-.206-.206-.41-.314-.612-.064-.118-.13-.233-.196-.35h-.697l.892 1.484.315-.522zM97.738 64.547h-.262l.567.943a18.88 18.88 0 00-.305-.942zM65.337 76.41l-.893-1.483-.893 1.483h1.786zM98.645 73.445c.04-.284.074-.57.1-.858l-.376-.625-.893 1.483h1.17zM98.82 71.212c.002-.118.008-.234.008-.352 0-.128-.007-.254-.01-.381h-1.343l.832 1.38.061.103.062-.103.39-.647zM64.444 79.376h-.893l.893 1.483.893-1.483h-.893zM63.551 70.479h-1.785l.831 1.38.062.103.061-.103.831-1.38zM64.444 73.445h-.893l.893 1.482.893-1.482h-.893zM61.437 73.99l.329-.545h-.41c.024.182.051.364.081.545zM70.693 82.342h-1.785l.878 1.46.014.022.014-.023.88-1.46zM79.62 85.307h1.786l-.893-1.483-.892 1.483zM65.337 79.376h1.785l-.893-1.483-.892 1.483zM83.823 89.321l.096-.018c.172-.037.341-.08.51-.121l.548-.91h-1.785l.63 1.049zM76.744 89.426c.12.02.24.044.36.063l.732-1.216H76.05l.694 1.153zM67.123 58.616H65.71c-.073.086-.149.168-.22.255l.63 1.047.109.18.109-.18.784-1.302zM62.585 78.016c.189.463.397.916.621 1.36h.345l-.893-1.483-.073.123zM81.406 85.307l.893 1.483.893-1.483h-1.786zM63.551 76.41h-1.54c.094.308.195.612.304.913l.306.507.037.063.038-.063.855-1.42zM67.122 79.376l.893 1.483.892-1.483H67.123zM76.05 85.307h1.786l-.893-1.483-.893 1.483zM67.92 85.307c.032.028.062.058.095.085.186.155.382.297.574.444l.319-.529h-.989zM68.876 55.65l-.01.008c-.294.216-.57.454-.85.686-.106.088-.217.169-.32.258l.32.531.892-1.482h-.032zM61.181 70.479h.585l-.545-.905c-.02.3-.033.601-.04.905zM65.337 73.445h1.785l-.893-1.483-.892 1.483zM71.586 87.722c.253.127.515.24.775.355l-.775-1.287-.425.706c.142.075.281.154.425.226zM80.482 89.704l.064-.001.86-1.43h-1.785l.861 1.431zM77.835 85.307l.893 1.483.893-1.483h-1.786zM67.122 76.41h-1.785l.855 1.42.037.063.038-.063.855-1.42zM84.977 85.307l.893 1.483.893-1.483h-1.786zM66.001 83.445c.09.101.186.197.278.296l.843-1.4h-1.785L66 83.446zM68.907 76.41l-.892-1.483-.893 1.483H68.907zM86.763 85.307h1.785l-.893-1.483-.892 1.483zM84.977 85.307l-.893-1.483-.892 1.483h1.785zM64.249 81.183c.027.042.052.086.08.127.037.056.077.11.115.165.098.143.197.285.298.426.11.152.234.292.348.44h.247l-.893-1.482-.195.324z" fill="#1C0C07"/><path d="M63.551 64.547h-1.294c-.062.174-.118.35-.175.526l.491.816.085.141.086-.141.807-1.341zM73.996 88.718l.268-.445h-1.476c.395.164.8.307 1.208.445zM61.365 68.178l.4-.665h-.29c-.04.22-.078.442-.11.665zM67.122 70.479h-1.785l.83 1.38.062.103.062-.103.83-1.38zM68.015 73.445h-.893l.893 1.482.892-1.482h-.892zM73.357 83.801l.014.023.014-.023.88-1.46h-1.786l.878 1.46z" fill="#1C0C07"/><path d="M23.392 120.561l3.433 9.706 3.415-9.706h3.617v13.383h-2.763v-3.658l.275-6.315-3.608 9.973h-1.89l-3.599-9.964.275 6.306v3.658h-2.753v-13.383h3.598zM46.841 128.144h-5.287v3.585h6.205v2.215H38.8v-13.383h8.942v2.233h-6.187v3.19h5.287v2.16zM51.913 133.944v-13.383h4.112c1.175 0 2.225.266 3.149.799.93.527 1.655 1.281 2.175 2.261.52.975.78 2.084.78 3.328v.616c0 1.244-.256 2.35-.77 3.318a5.464 5.464 0 01-2.157 2.252c-.93.533-1.98.803-3.15.809h-4.14zm2.754-11.15v8.935h1.33c1.078 0 1.901-.353 2.47-1.057.57-.705.86-1.713.872-3.024v-.708c0-1.361-.281-2.39-.844-3.089-.563-.704-1.386-1.057-2.47-1.057h-1.358zM69.606 133.944h-2.753v-13.383h2.754v13.383zM82.417 131.186h-4.829l-.918 2.758h-2.928l4.975-13.383h2.552l5.003 13.383h-2.928l-.927-2.758zm-4.085-2.233h3.341l-1.68-5.01-1.661 5.01zM100.101 130.083l1.799-9.522h2.745l-2.965 13.383h-2.772l-2.176-8.953-2.175 8.953h-2.773l-2.965-13.383h2.745l1.808 9.504 2.204-9.504h2.331l2.194 9.522zM111.608 133.944h-2.754v-13.383h2.754v13.383zM120.893 128.576l-1.432 1.544v3.824h-2.754v-13.383h2.754v6.066l1.211-1.664 3.406-4.402h3.387l-4.746 5.947 4.884 7.436h-3.277l-3.433-5.368zM134.107 133.944h-2.754v-13.383h2.754v13.383z" fill="#B8B8B8"/></svg>
